<svg width="938" height="614" viewBox="0 0 938 614" fill="none" xmlns="http://www.w3.org/2000/svg">
<g filter="url(#filter0_d_52_611)">
<rect x="4.00592" width="930" height="606" rx="20" fill="#FAFAFA"/>
<rect x="4.50592" y="0.5" width="929" height="605" rx="19.5" stroke="black"/>
</g>
<line x1="4" y1="58" x2="934.088" y2="58" stroke="black"/>
<rect x="36.2778" y="16" width="280.967" height="30" rx="5" fill="#D9D9D9" fill-opacity="0.88"/>
<path d="M331.816 40L338.806 18.19H343.126L350.086 40H346.561L344.626 33.52L346.546 34.855H336.121L337.246 32.005H345.676L344.611 33.475L342.316 25.735L341.011 20.74H340.891L339.616 25.735L335.356 40H331.816ZM361.294 40.18C360.684 40.18 360.089 40.04 359.509 39.76C358.939 39.47 358.444 39.08 358.024 38.59C357.604 38.09 357.314 37.525 357.154 36.895L356.074 36.415L357.229 34.96C357.339 35.56 357.564 36.04 357.904 36.4C358.254 36.75 358.649 37.005 359.089 37.165C359.529 37.315 359.944 37.39 360.334 37.39C361.144 37.39 361.854 37.165 362.464 36.715C363.084 36.265 363.564 35.595 363.904 34.705C364.244 33.805 364.414 32.685 364.414 31.345C364.414 29.685 364.139 28.405 363.589 27.505C363.039 26.605 362.144 26.155 360.904 26.155C360.554 26.155 360.124 26.25 359.614 26.44C359.104 26.63 358.629 26.93 358.189 27.34C357.759 27.74 357.474 28.27 357.334 28.93L357.184 27.64L357.319 27.16C357.409 26.47 357.679 25.835 358.129 25.255C358.579 24.675 359.149 24.21 359.839 23.86C360.539 23.5 361.299 23.32 362.119 23.32C363.279 23.32 364.289 23.63 365.149 24.25C366.009 24.86 366.674 25.76 367.144 26.95C367.614 28.14 367.849 29.61 367.849 31.36C367.849 33.22 367.549 34.81 366.949 36.13C366.349 37.44 365.549 38.445 364.549 39.145C363.559 39.835 362.474 40.18 361.294 40.18ZM353.989 40L353.974 16.66H357.334V23.98L357.349 36.46L357.604 37L357.319 37.36L357.229 40H353.989ZM379.927 40.225C378.477 40.225 377.212 39.905 376.132 39.265C375.052 38.615 374.212 37.66 373.612 36.4C373.012 35.13 372.712 33.57 372.712 31.72C372.712 29.97 373.027 28.47 373.657 27.22C374.287 25.96 375.147 24.995 376.237 24.325C377.327 23.645 378.557 23.305 379.927 23.305C381.417 23.305 382.702 23.645 383.782 24.325C384.862 24.995 385.692 25.96 386.272 27.22C386.852 28.47 387.142 29.97 387.142 31.72C387.142 33.57 386.817 35.13 386.167 36.4C385.527 37.66 384.662 38.615 383.572 39.265C382.482 39.905 381.267 40.225 379.927 40.225ZM379.927 37.33C381.047 37.33 381.957 36.89 382.657 36.01C383.367 35.12 383.722 33.69 383.722 31.72C383.722 29.9 383.382 28.525 382.702 27.595C382.032 26.665 381.107 26.2 379.927 26.2C378.797 26.2 377.882 26.66 377.182 27.58C376.482 28.49 376.132 29.87 376.132 31.72C376.132 33.59 376.482 34.995 377.182 35.935C377.892 36.865 378.807 37.33 379.927 37.33ZM397.825 40.33C396.465 40.33 395.345 39.835 394.465 38.845C393.585 37.845 393.145 36.435 393.145 34.615V23.62H396.49V34.06C396.49 35.21 396.695 36.025 397.105 36.505C397.525 36.975 398.21 37.21 399.16 37.21C399.93 37.21 400.625 36.99 401.245 36.55C401.875 36.11 402.315 35.615 402.565 35.065V23.62H405.94V40H403.075L402.685 33.82L402.955 35.065C402.835 35.965 402.6 36.815 402.25 37.615C401.9 38.415 401.37 39.07 400.66 39.58C399.96 40.08 399.015 40.33 397.825 40.33ZM420.689 40.24C419.859 40.24 419.054 40.1 418.274 39.82C417.494 39.54 416.849 39.06 416.339 38.38C415.839 37.69 415.589 36.745 415.589 35.545V28.96C415.589 28.75 415.634 28.47 415.724 28.12C415.824 27.77 415.989 27.445 416.219 27.145C416.459 26.845 416.794 26.67 417.224 26.62L415.589 24.28L415.664 23.86L416.459 17.89H419.099V34.735C419.099 35.755 419.309 36.405 419.729 36.685C420.159 36.965 420.839 37.105 421.769 37.105C422.319 37.105 422.814 37.075 423.254 37.015C423.694 36.945 424.099 36.855 424.469 36.745C424.849 36.625 425.209 36.495 425.549 36.355V39.52C424.849 39.77 424.124 39.95 423.374 40.06C422.624 40.18 421.729 40.24 420.689 40.24ZM412.064 26.62V23.62H424.334V26.62H412.064ZM449.93 40V23.62H452.54L452.825 28.24L452.615 28.705C452.755 27.015 453.15 25.69 453.8 24.73C454.45 23.77 455.38 23.29 456.59 23.29C457.24 23.29 457.785 23.445 458.225 23.755C458.665 24.065 458.99 24.58 459.2 25.3C459.42 26.01 459.505 26.97 459.455 28.18V40H456.575V28.285C456.575 27.545 456.47 27.05 456.26 26.8C456.05 26.54 455.74 26.41 455.33 26.41C454.97 26.41 454.555 26.535 454.085 26.785C453.625 27.035 453.2 27.6 452.81 28.48V40H449.93ZM463.175 40V28.285C463.175 27.635 463.06 27.16 462.83 26.86C462.6 26.56 462.235 26.41 461.735 26.41C461.185 26.41 460.72 26.585 460.34 26.935C459.96 27.275 459.665 27.785 459.455 28.465L458.975 29.68L459.305 28.555C459.415 26.915 459.815 25.63 460.505 24.7C461.195 23.76 462.115 23.29 463.265 23.29C464.175 23.29 464.865 23.63 465.335 24.31C465.815 24.99 466.055 26.225 466.055 28.015V40H463.175ZM477.969 40.225C476.539 40.225 475.259 39.905 474.129 39.265C473.009 38.615 472.124 37.66 471.474 36.4C470.824 35.14 470.499 33.595 470.499 31.765C470.499 29.965 470.809 28.435 471.429 27.175C472.049 25.915 472.889 24.955 473.949 24.295C475.019 23.635 476.219 23.305 477.549 23.305C479.579 23.305 481.224 23.96 482.484 25.27C483.744 26.58 484.374 28.46 484.374 30.91C484.374 31.25 484.364 31.52 484.344 31.72C484.324 31.91 484.309 32.15 484.299 32.44H473.769C473.789 33.63 474.004 34.59 474.414 35.32C474.834 36.04 475.364 36.565 476.004 36.895C476.654 37.215 477.329 37.375 478.029 37.375C478.799 37.375 479.419 37.24 479.889 36.97C480.359 36.7 480.719 36.16 480.969 35.35H484.029C483.919 36.39 483.594 37.275 483.054 38.005C482.524 38.735 481.824 39.29 480.954 39.67C480.084 40.04 479.089 40.225 477.969 40.225ZM473.784 31.195C473.864 30.755 474.049 30.455 474.339 30.295C474.629 30.135 475.029 30.055 475.539 30.055H480.969C480.939 28.785 480.664 27.82 480.144 27.16C479.624 26.49 478.799 26.155 477.669 26.155C476.399 26.155 475.434 26.61 474.774 27.52C474.114 28.43 473.784 29.655 473.784 31.195Z" fill="black"/>
<rect x="500.38" y="16" width="280.967" height="30" rx="5" fill="#D9D9D9" fill-opacity="0.88"/>
<defs>
<filter id="filter0_d_52_611" x="0.00592041" y="0" width="938" height="614" filterUnits="userSpaceOnUse" color-interpolation-filters="sRGB">
<feFlood flood-opacity="0" result="BackgroundImageFix"/>
<feColorMatrix in="SourceAlpha" type="matrix" values="0 0 0 0 0 0 0 0 0 0 0 0 0 0 0 0 0 0 127 0" result="hardAlpha"/>
<feOffset dy="4"/>
<feGaussianBlur stdDeviation="2"/>
<feComposite in2="hardAlpha" operator="out"/>
<feColorMatrix type="matrix" values="0 0 0 0 0 0 0 0 0 0 0 0 0 0 0 0 0 0 0.25 0"/>
<feBlend mode="normal" in2="BackgroundImageFix" result="effect1_dropShadow_52_611"/>
<feBlend mode="normal" in="SourceGraphic" in2="effect1_dropShadow_52_611" result="shape"/>
</filter>
</defs>
</svg>
