<svg width="38" height="38" viewBox="0 0 38 38" fill="none" xmlns="http://www.w3.org/2000/svg">
<g clip-path="url(#clip0_77_392)">
<path d="M25.0313 25.4691C24.4705 27.562 23.2588 29.1461 21.3961 30.2215C19.5335 31.2969 17.5558 31.5542 15.4629 30.9934C13.3701 30.4326 11.786 29.2209 10.7106 27.3583C9.6352 25.4957 9.37789 23.5179 9.93866 21.4251L12.9313 10.2566C13.3357 8.74732 14.2076 7.60599 15.5472 6.83259C16.8868 6.05919 18.3112 5.87469 19.8204 6.2791C21.3297 6.6835 22.471 7.55549 23.2444 8.89505C24.0178 10.2346 24.2023 11.659 23.7979 13.1683L20.9671 23.7331C20.7191 24.6588 20.1868 25.3573 19.3703 25.8287C18.5538 26.3001 17.6827 26.4118 16.757 26.1638C15.8314 25.9157 15.1328 25.3835 14.6614 24.567C14.19 23.7505 14.0783 22.8794 14.3263 21.9537L17.3189 10.7852L19.7338 11.4323L16.7412 22.6008C16.6711 22.8624 16.6986 23.1016 16.8238 23.3185C16.9491 23.5354 17.1425 23.6789 17.4041 23.749C17.6657 23.8191 17.9049 23.7915 18.1218 23.6663C18.3387 23.5411 18.4822 23.3477 18.5523 23.0861L21.3831 12.5212C21.5895 11.6707 21.484 10.8767 21.0669 10.1395C20.6498 9.40224 20.0186 8.92038 19.1734 8.69391C18.3282 8.46745 17.5356 8.56782 16.7957 8.99503C16.0557 9.42224 15.5725 10.0584 15.3461 10.9036L12.3535 22.0721C11.9505 23.4955 12.1187 24.8401 12.8579 26.1058C13.5972 27.3715 14.6812 28.1958 16.11 28.5786C17.5186 28.956 18.8494 28.7788 20.1024 28.0469C21.3553 27.315 22.1934 26.2401 22.6164 24.8221L25.7708 13.0499L28.1856 13.6969L25.0313 25.4691Z" fill="#858585"/>
</g>
<defs>
<clipPath id="clip0_77_392">
<rect width="30" height="30" fill="white" transform="translate(8.39343 0.628906) rotate(15)"/>
</clipPath>
</defs>
</svg>
