<svg width="1001" height="614" viewBox="0 0 1001 614" fill="none" xmlns="http://www.w3.org/2000/svg">
<g filter="url(#filter0_d_75_333)">
<rect x="4" width="993" height="606" rx="20" fill="#FAFAFA"/>
<rect x="4.5" y="0.5" width="992" height="605" rx="19.5" stroke="black"/>
</g>
<line x1="2.99371" y1="58" x2="996.088" y2="58" stroke="black"/>
<rect x="24" y="16" width="413" height="30" rx="5" fill="#D9D9D9" fill-opacity="0.88"/>
<rect x="593" y="15" width="254" height="30" rx="5" fill="#D9D9D9" fill-opacity="0.88"/>
<path d="M462.161 41.435C460.581 41.435 459.206 40.965 458.036 40.025C456.876 39.075 455.976 37.75 455.336 36.05C454.706 34.35 454.391 32.355 454.391 30.065C454.391 27.735 454.721 25.73 455.381 24.05C456.051 22.36 456.986 21.06 458.186 20.15C459.396 19.23 460.806 18.77 462.416 18.77C463.806 18.77 465.016 19.045 466.046 19.595C467.086 20.145 467.896 21.015 468.476 22.205C469.066 23.395 469.381 24.95 469.421 26.87H465.896C465.836 25.64 465.671 24.66 465.401 23.93C465.141 23.19 464.771 22.66 464.291 22.34C463.811 22.01 463.206 21.845 462.476 21.845C461.436 21.845 460.571 22.135 459.881 22.715C459.191 23.295 458.676 24.19 458.336 25.4C457.996 26.61 457.826 28.165 457.826 30.065C457.826 32.575 458.216 34.59 458.996 36.11C459.776 37.62 460.906 38.375 462.386 38.375C463.206 38.375 463.866 38.235 464.366 37.955C464.866 37.675 465.241 37.27 465.491 36.74C465.741 36.21 465.891 35.565 465.941 34.805H469.316C469.256 36.075 469.026 37.14 468.626 38C468.236 38.85 467.711 39.53 467.051 40.04C466.401 40.54 465.656 40.895 464.816 41.105C463.986 41.325 463.101 41.435 462.161 41.435ZM480.029 41.225C478.579 41.225 477.314 40.905 476.234 40.265C475.154 39.615 474.314 38.66 473.714 37.4C473.114 36.13 472.814 34.57 472.814 32.72C472.814 30.97 473.129 29.47 473.759 28.22C474.389 26.96 475.249 25.995 476.339 25.325C477.429 24.645 478.659 24.305 480.029 24.305C481.519 24.305 482.804 24.645 483.884 25.325C484.964 25.995 485.794 26.96 486.374 28.22C486.954 29.47 487.244 30.97 487.244 32.72C487.244 34.57 486.919 36.13 486.269 37.4C485.629 38.66 484.764 39.615 483.674 40.265C482.584 40.905 481.369 41.225 480.029 41.225ZM480.029 38.33C481.149 38.33 482.059 37.89 482.759 37.01C483.469 36.12 483.824 34.69 483.824 32.72C483.824 30.9 483.484 29.525 482.804 28.595C482.134 27.665 481.209 27.2 480.029 27.2C478.899 27.2 477.984 27.66 477.284 28.58C476.584 29.49 476.234 30.87 476.234 32.72C476.234 34.59 476.584 35.995 477.284 36.935C477.994 37.865 478.909 38.33 480.029 38.33ZM491.763 41V24.59H494.613L495.003 30.77L494.733 29.525C494.963 27.795 495.503 26.49 496.353 25.61C497.213 24.73 498.393 24.29 499.893 24.29C501.443 24.29 502.603 24.785 503.373 25.775C504.153 26.765 504.543 28.225 504.543 30.155V41H501.183V31.31C501.183 29.9 500.983 28.9 500.583 28.31C500.183 27.71 499.493 27.41 498.513 27.41C497.753 27.41 497.068 27.605 496.458 27.995C495.858 28.385 495.413 28.895 495.123 29.525V41H491.763ZM517.791 41.24C516.961 41.24 516.156 41.1 515.376 40.82C514.596 40.54 513.951 40.06 513.441 39.38C512.941 38.69 512.691 37.745 512.691 36.545V29.96C512.691 29.75 512.736 29.47 512.826 29.12C512.926 28.77 513.091 28.445 513.321 28.145C513.561 27.845 513.896 27.67 514.326 27.62L512.691 25.28L512.766 24.86L513.561 18.89H516.201V35.735C516.201 36.755 516.411 37.405 516.831 37.685C517.261 37.965 517.941 38.105 518.871 38.105C519.421 38.105 519.916 38.075 520.356 38.015C520.796 37.945 521.201 37.855 521.571 37.745C521.951 37.625 522.311 37.495 522.651 37.355V40.52C521.951 40.77 521.226 40.95 520.476 41.06C519.726 41.18 518.831 41.24 517.791 41.24ZM509.166 27.62V24.62H521.436V27.62H509.166ZM532.194 41.18C530.694 41.18 529.494 40.765 528.594 39.935C527.694 39.105 527.244 37.98 527.244 36.56C527.244 35.35 527.639 34.35 528.429 33.56C529.219 32.77 530.394 32.235 531.954 31.955C532.694 31.825 533.424 31.715 534.144 31.625C534.874 31.535 535.519 31.465 536.079 31.415C536.649 31.355 537.059 31.315 537.309 31.295V30.035C537.309 28.955 537.054 28.195 536.544 27.755C536.044 27.305 535.274 27.08 534.234 27.08C533.194 27.08 532.374 27.29 531.774 27.71C531.184 28.12 530.899 28.95 530.919 30.2H527.874C527.764 28.99 527.964 27.945 528.474 27.065C528.984 26.185 529.734 25.51 530.724 25.04C531.724 24.56 532.899 24.32 534.249 24.32C536.269 24.32 537.814 24.83 538.884 25.85C539.964 26.86 540.504 28.38 540.504 30.41V41H537.309V37.355C537.119 38.085 536.769 38.74 536.259 39.32C535.759 39.89 535.154 40.345 534.444 40.685C533.744 41.015 532.994 41.18 532.194 41.18ZM533.334 38.57C533.874 38.57 534.434 38.465 535.014 38.255C535.594 38.035 536.099 37.755 536.529 37.415C536.969 37.065 537.229 36.695 537.309 36.305V33.245C537.169 33.255 536.909 33.29 536.529 33.35C536.149 33.4 535.744 33.46 535.314 33.53C534.884 33.59 534.504 33.655 534.174 33.725C532.914 33.975 532.034 34.295 531.534 34.685C531.044 35.075 530.799 35.62 530.799 36.32C530.799 37.01 531.014 37.56 531.444 37.97C531.884 38.37 532.514 38.57 533.334 38.57ZM552.687 41.285C551.127 41.285 549.787 40.93 548.667 40.22C547.547 39.5 546.682 38.5 546.072 37.22C545.472 35.94 545.172 34.455 545.172 32.765C545.172 30.985 545.477 29.465 546.087 28.205C546.707 26.945 547.557 25.985 548.637 25.325C549.717 24.655 550.957 24.32 552.357 24.32C553.787 24.32 554.992 24.615 555.972 25.205C556.952 25.795 557.687 26.575 558.177 27.545C558.677 28.505 558.912 29.56 558.882 30.71H555.612C555.612 30.19 555.542 29.715 555.402 29.285C555.272 28.855 555.072 28.48 554.802 28.16C554.532 27.84 554.192 27.595 553.782 27.425C553.382 27.245 552.912 27.155 552.372 27.155C551.002 27.145 550.022 27.65 549.432 28.67C548.842 29.69 548.547 31.03 548.547 32.69C548.547 34.6 548.897 36.035 549.597 36.995C550.297 37.955 551.357 38.435 552.777 38.435C553.307 38.435 553.787 38.35 554.217 38.18C554.647 38 554.992 37.75 555.252 37.43C555.522 37.11 555.672 36.735 555.702 36.305H558.867C558.897 37.345 558.617 38.24 558.027 38.99C557.437 39.73 556.667 40.3 555.717 40.7C554.767 41.09 553.757 41.285 552.687 41.285ZM571.756 41.24C570.926 41.24 570.121 41.1 569.341 40.82C568.561 40.54 567.916 40.06 567.406 39.38C566.906 38.69 566.656 37.745 566.656 36.545V29.96C566.656 29.75 566.701 29.47 566.791 29.12C566.891 28.77 567.056 28.445 567.286 28.145C567.526 27.845 567.861 27.67 568.291 27.62L566.656 25.28L566.731 24.86L567.526 18.89H570.166V35.735C570.166 36.755 570.376 37.405 570.796 37.685C571.226 37.965 571.906 38.105 572.836 38.105C573.386 38.105 573.881 38.075 574.321 38.015C574.761 37.945 575.166 37.855 575.536 37.745C575.916 37.625 576.276 37.495 576.616 37.355V40.52C575.916 40.77 575.191 40.95 574.441 41.06C573.691 41.18 572.796 41.24 571.756 41.24ZM563.131 27.62V24.62H575.401V27.62H563.131Z" fill="black"/>
<defs>
<filter id="filter0_d_75_333" x="0" y="0" width="1001" height="614" filterUnits="userSpaceOnUse" color-interpolation-filters="sRGB">
<feFlood flood-opacity="0" result="BackgroundImageFix"/>
<feColorMatrix in="SourceAlpha" type="matrix" values="0 0 0 0 0 0 0 0 0 0 0 0 0 0 0 0 0 0 127 0" result="hardAlpha"/>
<feOffset dy="4"/>
<feGaussianBlur stdDeviation="2"/>
<feComposite in2="hardAlpha" operator="out"/>
<feColorMatrix type="matrix" values="0 0 0 0 0 0 0 0 0 0 0 0 0 0 0 0 0 0 0.25 0"/>
<feBlend mode="normal" in2="BackgroundImageFix" result="effect1_dropShadow_75_333"/>
<feBlend mode="normal" in="SourceGraphic" in2="effect1_dropShadow_75_333" result="shape"/>
</filter>
</defs>
</svg>
