<svg width="38" height="35" viewBox="0 0 38 35" fill="none" xmlns="http://www.w3.org/2000/svg">
<mask id="path-1-inside-1_401_30" fill="white">
<path d="M38 7C38 3.13401 34.866 0 31 0H0V35H31C34.866 35 38 31.866 38 28V7Z"/>
</mask>
<path d="M38 7C38 3.13401 34.866 0 31 0H0V35H31C34.866 35 38 31.866 38 28V7Z" fill="white"/>
<path d="M39 7C39 2.58172 35.4183 -1 31 -1H-0.5L0.5 1H31C34.3137 1 37 3.68629 37 7H39ZM-0.5 36H31C35.4183 36 39 32.4183 39 28H37C37 31.3137 34.3137 34 31 34H0.5L-0.5 36ZM31 36C35.4183 36 39 32.4183 39 28V7C39 2.58172 35.4183 -1 31 -1V1C34.3137 1 37 3.68629 37 7V28C37 31.3137 34.3137 34 31 34V36ZM-0.5 -1V36L0.5 34V1L-0.5 -1Z" fill="black" mask="url(#path-1-inside-1_401_30)"/>
<rect x="9" y="8" width="5" height="5" fill="black"/>
<rect x="16" y="8" width="5" height="5" fill="black"/>
<rect x="23" y="8" width="5" height="5" fill="black"/>
<rect x="9" y="15" width="5" height="5" fill="black"/>
<rect x="16" y="15" width="5" height="5" fill="black"/>
<rect x="23" y="15" width="5" height="5" fill="black"/>
<rect x="9" y="22" width="5" height="5" fill="black"/>
<rect x="16" y="22" width="5" height="5" fill="black"/>
<rect x="23" y="22" width="5" height="5" fill="black"/>
</svg>
