<svg width="23" height="23" viewBox="0 0 23 23" fill="none" xmlns="http://www.w3.org/2000/svg">
<circle cx="11.5" cy="11.5" r="10.5" stroke="#B0B0B0" stroke-width="2"/>
<path d="M11.3911 17.3115V11.1355C11.3911 10.8689 11.4391 10.6449 11.5351 10.4635C11.6311 10.2769 11.8178 10.1729 12.0951 10.1515L11.3911 9.87953L11.3351 9.19953L12.8551 8.79153L12.8311 17.3115H11.3911ZM8.54313 17.5195V16.3115H15.4311V17.5195H8.54313ZM8.30313 10.1515V8.79153H12.8551L12.4791 10.1515H8.30313ZM12.0551 7.25553C11.7298 7.25553 11.4525 7.14353 11.2231 6.91953C10.9991 6.69553 10.8871 6.40486 10.8871 6.04753C10.8871 5.68486 10.9991 5.39153 11.2231 5.16753C11.4525 4.9382 11.7298 4.82353 12.0551 4.82353C12.3805 4.82353 12.6551 4.9382 12.8791 5.16753C13.1085 5.39153 13.2231 5.68486 13.2231 6.04753C13.2231 6.40486 13.1085 6.69553 12.8791 6.91953C12.6498 7.14353 12.3751 7.25553 12.0551 7.25553Z" fill="#B0B0B0"/>
</svg>
