<svg width="38" height="35" viewBox="0 0 38 35" fill="none" xmlns="http://www.w3.org/2000/svg">
<mask id="path-1-inside-1_401_8" fill="white">
<path d="M0 7C0 3.13401 3.13401 0 7 0H38V35H7C3.13401 35 0 31.866 0 28V7Z"/>
</mask>
<path d="M0 7C0 3.13401 3.13401 0 7 0H38V35H7C3.13401 35 0 31.866 0 28V7Z" fill="white"/>
<path d="M-1 7C-1 2.58172 2.58172 -1 7 -1H38.5L37.5 1H7C3.68629 1 1 3.68629 1 7H-1ZM38.5 36H7C2.58172 36 -1 32.4183 -1 28H1C1 31.3137 3.68629 34 7 34H37.5L38.5 36ZM7 36C2.58172 36 -1 32.4183 -1 28V7C-1 2.58172 2.58172 -1 7 -1V1C3.68629 1 1 3.68629 1 7V28C1 31.3137 3.68629 34 7 34V36ZM38.5 -1V36L37.5 34V1L38.5 -1Z" fill="black" mask="url(#path-1-inside-1_401_8)"/>
<line x1="10" y1="10" x2="30" y2="10" stroke="black" stroke-width="2"/>
<line x1="10" y1="17" x2="30" y2="17" stroke="black" stroke-width="2"/>
<line x1="10" y1="24" x2="30" y2="24" stroke="black" stroke-width="2"/>
</svg>
