<?xml version="1.0" encoding="UTF-8"?>
<svg id="Layer_1" data-name="Layer 1" xmlns="http://www.w3.org/2000/svg" viewBox="0 0 239.43 335.61">
  <defs>
    <style>
      .cls-1, .cls-2 {
        fill: #4b4b4b;
      }

      .cls-1, .cls-3 {
        stroke-width: 0px;
      }

      .cls-2, .cls-4 {
        stroke: #4b4b4b;
      }

      .cls-3 {
        fill: #fff;
      }

      .cls-5 {
        stroke: rgba(0, 0, 0, .7);
        stroke-width: 3.5px;
      }

      .cls-5, .cls-4 {
        fill: none;
      }

      .cls-4 {
        stroke-linecap: round;
        stroke-width: 2px;
      }
    </style>
  </defs>
  <g>
    <path class="cls-3" d="M206.3,1.75c-.22-.05-.95-.37-1.16-.44H4.51c-1.21,0-2.2.98-2.21,2.19l.21,328.08c0,.79.64,1.43,1.42,1.43l230.71-.14c1.31,0,2.37-1.06,2.37-2.37l.65-296.62c-2.32-2.29-4.93-5.63-6.29-8-4.4-1.47-4.96-4.31-8.24-7.57-.75-.2-1.05-.96-1.55-1.43"/>
    <path class="cls-5" d="M214.81,10.83c-2.87-2.77-4.32-4.68-6.36-6.66-1.84-2-1.87-1.71-2.5-2.16L4.52,1.75c-1.53,0-2.77,1.24-2.77,2.77v326.58c0,1.53,1.24,2.77,2.77,2.77h230.4c1.53,0,2.77-1.24,2.77-2.77V33.88c-.57-1.8-3.4-4.75-4.54-6.72-3.21-2.42-5.79-3.81-9.77-7.49-.97-.81-1.59-1.76-2.09-2.24-1.21-.63-2.15-1.68-2.75-2.68l-3.33-3.23c-2.86-3.23-1.62-1.64-3.97-4.43"/>
    <path class="cls-2" d="M205.39,2.82l-.24,34.52s0,0,0,0l32.5-3.96s.01,0,0-.01l-31.69-30.8c-.22-.21-.59-.06-.59.25Z"/>
    <path class="cls-1" d="M185.09,95.31c-1.58-1.35-3.67-1.94-5.73-1.62l-90.1,14.23c-3.46.55-6,3.53-6,7.03v73.5h-14.23c-15.69,0-28.45,11.7-28.45,26.08s12.76,26.08,28.45,26.08,28.45-11.7,28.45-26.08v-65.05l75.87-11.98v39.1h-14.23c-15.69,0-28.45,11.7-28.45,26.08s12.76,26.08,28.45,26.08,28.45-11.7,28.45-26.08v-101.95c0-2.08-.91-4.06-2.49-5.41Z"/>
  </g>
  <line class="cls-4" x1="206.73" y1="2.47" x2="237.68" y2="32.69"/>
  <line class="cls-4" x1="205.95" y1="2" x2="237.67" y2="32.03"/>
</svg>