<svg width="1013" height="781" viewBox="0 0 1013 781" fill="none" xmlns="http://www.w3.org/2000/svg">
<g filter="url(#filter0_d_776_64)">
<rect x="4" width="1005" height="773" rx="20" fill="#FAFAFA"/>
<rect x="4.5" y="0.5" width="1004" height="772" rx="19.5" stroke="black"/>
</g>
<line x1="4" y1="59.75" x2="1009" y2="59.75" stroke="black"/>
<mask id="path-4-inside-1_776_64" fill="white">
<path d="M222 60H1008V624H222V60Z"/>
</mask>
<path d="M222 60H1008V624H222V60Z" fill="black" fill-opacity="0.6"/>
<path d="M1008 623H222V625H1008V623Z" fill="black" mask="url(#path-4-inside-1_776_64)"/>
<rect x="40" y="16" width="309" height="30" rx="5" fill="#D9D9D9" fill-opacity="0.88"/>
<path d="M367.787 38.348C366.307 38.348 365.075 37.972 364.091 37.22C363.107 36.468 362.371 35.408 361.883 34.04C361.403 32.672 361.163 31.068 361.163 29.228C361.163 27.388 361.423 25.796 361.943 24.452C362.463 23.1 363.227 22.06 364.235 21.332C365.251 20.596 366.487 20.228 367.943 20.228C368.847 20.228 369.675 20.388 370.427 20.708C371.179 21.028 371.803 21.584 372.299 22.376C372.803 23.168 373.127 24.268 373.271 25.676H370.667C370.603 24.948 370.439 24.368 370.175 23.936C369.919 23.504 369.583 23.192 369.167 23C368.751 22.808 368.275 22.712 367.739 22.712C366.795 22.712 366.039 23 365.471 23.576C364.903 24.144 364.495 24.92 364.247 25.904C363.999 26.88 363.875 27.988 363.875 29.228C363.875 30.588 364.027 31.764 364.331 32.756C364.635 33.748 365.075 34.516 365.651 35.06C366.235 35.596 366.939 35.864 367.763 35.864C368.283 35.864 368.807 35.792 369.335 35.648C369.871 35.504 370.323 35.248 370.691 34.88V31.184H367.835V28.76H373.127L373.103 36.14C372.575 36.62 372.023 37.024 371.447 37.352C370.871 37.68 370.275 37.928 369.659 38.096C369.051 38.264 368.427 38.348 367.787 38.348ZM380.354 38.144C379.154 38.144 378.194 37.812 377.474 37.148C376.754 36.484 376.394 35.584 376.394 34.448C376.394 33.48 376.71 32.68 377.342 32.048C377.974 31.416 378.914 30.988 380.162 30.764C380.754 30.66 381.338 30.572 381.914 30.5C382.498 30.428 383.014 30.372 383.462 30.332C383.918 30.284 384.246 30.252 384.446 30.236V29.228C384.446 28.364 384.242 27.756 383.834 27.404C383.434 27.044 382.818 26.864 381.986 26.864C381.154 26.864 380.498 27.032 380.018 27.368C379.546 27.696 379.318 28.36 379.334 29.36H376.898C376.81 28.392 376.97 27.556 377.378 26.852C377.786 26.148 378.386 25.608 379.178 25.232C379.978 24.848 380.918 24.656 381.998 24.656C383.614 24.656 384.85 25.064 385.706 25.88C386.57 26.688 387.002 27.904 387.002 29.528V38H384.446V35.084C384.294 35.668 384.014 36.192 383.606 36.656C383.206 37.112 382.722 37.476 382.154 37.748C381.594 38.012 380.994 38.144 380.354 38.144ZM381.266 36.056C381.698 36.056 382.146 35.972 382.61 35.804C383.074 35.628 383.478 35.404 383.822 35.132C384.174 34.852 384.382 34.556 384.446 34.244V31.796C384.334 31.804 384.126 31.832 383.822 31.88C383.518 31.92 383.194 31.968 382.85 32.024C382.506 32.072 382.202 32.124 381.938 32.18C380.93 32.38 380.226 32.636 379.826 32.948C379.434 33.26 379.238 33.696 379.238 34.256C379.238 34.808 379.41 35.248 379.754 35.576C380.106 35.896 380.61 36.056 381.266 36.056ZM396.664 38.18C395.52 38.18 394.496 37.924 393.592 37.412C392.696 36.892 391.988 36.128 391.468 35.12C390.948 34.112 390.688 32.876 390.688 31.412C390.688 29.972 390.936 28.748 391.432 27.74C391.928 26.732 392.6 25.964 393.448 25.436C394.304 24.908 395.264 24.644 396.328 24.644C397.952 24.644 399.268 25.168 400.276 26.216C401.284 27.264 401.788 28.768 401.788 30.728C401.788 31 401.78 31.216 401.764 31.376C401.748 31.528 401.736 31.72 401.728 31.952H393.304C393.32 32.904 393.492 33.672 393.82 34.256C394.156 34.832 394.58 35.252 395.092 35.516C395.612 35.772 396.152 35.9 396.712 35.9C397.328 35.9 397.824 35.792 398.2 35.576C398.576 35.36 398.864 34.928 399.064 34.28H401.512C401.424 35.112 401.164 35.82 400.732 36.404C400.308 36.988 399.748 37.432 399.052 37.736C398.356 38.032 397.56 38.18 396.664 38.18ZM393.316 30.956C393.38 30.604 393.528 30.364 393.76 30.236C393.992 30.108 394.312 30.044 394.72 30.044H399.064C399.04 29.028 398.82 28.256 398.404 27.728C397.988 27.192 397.328 26.924 396.424 26.924C395.408 26.924 394.636 27.288 394.108 28.016C393.58 28.744 393.316 29.724 393.316 30.956ZM393.76 22.712C393.32 22.712 392.928 22.54 392.584 22.196C392.24 21.852 392.068 21.384 392.068 20.792C392.068 20.232 392.24 19.776 392.584 19.424C392.928 19.072 393.32 18.896 393.76 18.896C394.224 18.896 394.624 19.072 394.96 19.424C395.296 19.776 395.464 20.232 395.464 20.792C395.464 21.384 395.292 21.852 394.948 22.196C394.612 22.54 394.216 22.712 393.76 22.712ZM398.92 22.712C398.464 22.712 398.064 22.54 397.72 22.196C397.384 21.852 397.216 21.384 397.216 20.792C397.216 20.232 397.384 19.776 397.72 19.424C398.064 19.072 398.464 18.896 398.92 18.896C399.368 18.896 399.76 19.072 400.096 19.424C400.44 19.776 400.612 20.232 400.612 20.792C400.612 21.384 400.44 21.852 400.096 22.196C399.76 22.54 399.368 22.712 398.92 22.712ZM412.759 38.192C412.007 38.192 411.303 38.088 410.647 37.88C409.999 37.672 409.475 37.296 409.075 36.752C408.675 36.208 408.475 35.436 408.475 34.436V22.832C408.475 22.504 408.547 22.244 408.691 22.052C408.835 21.852 409.043 21.736 409.315 21.704H404.827V19.328H411.307L411.259 33.788C411.259 34.588 411.411 35.104 411.715 35.336C412.027 35.568 412.543 35.684 413.263 35.684C413.967 35.684 414.555 35.628 415.027 35.516C415.507 35.404 415.931 35.26 416.299 35.084V37.616C415.851 37.784 415.307 37.92 414.667 38.024C414.035 38.136 413.399 38.192 412.759 38.192ZM434.112 38V20.552H444.768V22.832H435.612L436.812 21.716V28.892L435.624 28.028H443.748V30.308H436.452L436.812 29.612V38H434.112ZM452.307 38.144C451.107 38.144 450.147 37.812 449.427 37.148C448.707 36.484 448.347 35.584 448.347 34.448C448.347 33.48 448.663 32.68 449.295 32.048C449.927 31.416 450.867 30.988 452.115 30.764C452.707 30.66 453.291 30.572 453.867 30.5C454.451 30.428 454.967 30.372 455.415 30.332C455.871 30.284 456.199 30.252 456.399 30.236V29.228C456.399 28.364 456.195 27.756 455.787 27.404C455.387 27.044 454.771 26.864 453.939 26.864C453.107 26.864 452.451 27.032 451.971 27.368C451.499 27.696 451.271 28.36 451.287 29.36H448.851C448.763 28.392 448.923 27.556 449.331 26.852C449.739 26.148 450.339 25.608 451.131 25.232C451.931 24.848 452.871 24.656 453.951 24.656C455.567 24.656 456.803 25.064 457.659 25.88C458.523 26.688 458.955 27.904 458.955 29.528V38H456.399V35.084C456.247 35.668 455.967 36.192 455.559 36.656C455.159 37.112 454.675 37.476 454.107 37.748C453.547 38.012 452.947 38.144 452.307 38.144ZM453.219 36.056C453.651 36.056 454.099 35.972 454.563 35.804C455.027 35.628 455.431 35.404 455.775 35.132C456.127 34.852 456.335 34.556 456.399 34.244V31.796C456.287 31.804 456.079 31.832 455.775 31.88C455.471 31.92 455.147 31.968 454.803 32.024C454.459 32.072 454.155 32.124 453.891 32.18C452.883 32.38 452.179 32.636 451.779 32.948C451.387 33.26 451.191 33.696 451.191 34.256C451.191 34.808 451.363 35.248 451.707 35.576C452.059 35.896 452.563 36.056 453.219 36.056ZM463.446 43.172V40.604H464.465C465.074 40.604 465.546 40.552 465.882 40.448C466.218 40.344 466.466 40.184 466.626 39.968C466.794 39.76 466.922 39.504 467.01 39.2C467.098 38.872 467.194 38.612 467.298 38.42C467.402 38.228 467.546 38.088 467.73 38H466.854L462.33 24.908H465.378L466.974 30.728L468.39 35.324H468.498L469.806 30.74L471.402 24.908H474.438L469.938 38C469.666 38.792 469.378 39.508 469.074 40.148C468.778 40.788 468.43 41.332 468.03 41.78C467.63 42.228 467.142 42.572 466.566 42.812C465.998 43.052 465.298 43.172 464.465 43.172H463.446ZM483.008 38.18C481.864 38.18 480.84 37.924 479.936 37.412C479.04 36.892 478.332 36.128 477.812 35.12C477.292 34.112 477.032 32.876 477.032 31.412C477.032 29.972 477.28 28.748 477.776 27.74C478.272 26.732 478.944 25.964 479.792 25.436C480.648 24.908 481.608 24.644 482.672 24.644C484.296 24.644 485.612 25.168 486.62 26.216C487.628 27.264 488.132 28.768 488.132 30.728C488.132 31 488.124 31.216 488.108 31.376C488.092 31.528 488.08 31.72 488.072 31.952H479.648C479.664 32.904 479.836 33.672 480.164 34.256C480.5 34.832 480.924 35.252 481.436 35.516C481.956 35.772 482.496 35.9 483.056 35.9C483.672 35.9 484.168 35.792 484.544 35.576C484.92 35.36 485.208 34.928 485.408 34.28H487.856C487.768 35.112 487.508 35.82 487.076 36.404C486.652 36.988 486.092 37.432 485.396 37.736C484.7 38.032 483.904 38.18 483.008 38.18ZM479.66 30.956C479.724 30.604 479.872 30.364 480.104 30.236C480.336 30.108 480.656 30.044 481.064 30.044H485.408C485.384 29.028 485.164 28.256 484.748 27.728C484.332 27.192 483.672 26.924 482.768 26.924C481.752 26.924 480.98 27.288 480.452 28.016C479.924 28.744 479.66 29.724 479.66 30.956ZM506.737 30.368V28.184H515.881V30.368H506.737ZM538.183 32.024C537.975 32.024 537.787 31.944 537.619 31.784C537.459 31.616 537.379 31.384 537.379 31.088L536.539 30.248L537.379 29.576H540.847C541.559 29.576 542.151 29.456 542.623 29.216C543.095 28.976 543.451 28.608 543.691 28.112C543.931 27.608 544.051 26.972 544.051 26.204C544.051 25.396 543.911 24.764 543.631 24.308C543.359 23.852 542.967 23.532 542.455 23.348C541.943 23.156 541.335 23.06 540.631 23.06H537.307L536.275 20.552C536.555 20.552 536.891 20.552 537.283 20.552C537.683 20.552 538.095 20.552 538.519 20.552C538.951 20.552 539.351 20.552 539.719 20.552C540.095 20.552 540.399 20.552 540.631 20.552C542.647 20.552 544.175 20.992 545.215 21.872C546.263 22.744 546.787 24.172 546.787 26.156C546.787 26.892 546.683 27.608 546.475 28.304C546.275 29 545.943 29.628 545.479 30.188C545.023 30.748 544.411 31.196 543.643 31.532C542.883 31.86 541.943 32.024 540.823 32.024H538.183ZM534.691 38V20.552H537.379V38H534.691ZM554.961 38.18C553.817 38.18 552.793 37.924 551.889 37.412C550.993 36.892 550.285 36.128 549.765 35.12C549.245 34.112 548.985 32.876 548.985 31.412C548.985 29.972 549.233 28.748 549.729 27.74C550.225 26.732 550.897 25.964 551.745 25.436C552.601 24.908 553.561 24.644 554.625 24.644C556.249 24.644 557.565 25.168 558.573 26.216C559.581 27.264 560.085 28.768 560.085 30.728C560.085 31 560.077 31.216 560.061 31.376C560.045 31.528 560.033 31.72 560.025 31.952H551.601C551.617 32.904 551.789 33.672 552.117 34.256C552.453 34.832 552.877 35.252 553.389 35.516C553.909 35.772 554.449 35.9 555.009 35.9C555.625 35.9 556.121 35.792 556.497 35.576C556.873 35.36 557.161 34.928 557.361 34.28H559.809C559.721 35.112 559.461 35.82 559.029 36.404C558.605 36.988 558.045 37.432 557.349 37.736C556.653 38.032 555.857 38.18 554.961 38.18ZM551.613 30.956C551.677 30.604 551.825 30.364 552.057 30.236C552.289 30.108 552.609 30.044 553.017 30.044H557.361C557.337 29.028 557.117 28.256 556.701 27.728C556.285 27.192 555.625 26.924 554.721 26.924C553.705 26.924 552.933 27.288 552.405 28.016C551.877 28.744 551.613 29.724 551.613 30.956ZM570.3 38.192C569.636 38.192 568.992 38.08 568.368 37.856C567.744 37.632 567.228 37.248 566.82 36.704C566.42 36.152 566.22 35.396 566.22 34.436V29.168C566.22 29 566.256 28.776 566.328 28.496C566.408 28.216 566.54 27.956 566.724 27.716C566.916 27.476 567.184 27.336 567.528 27.296L566.22 25.424L566.28 25.088L566.916 20.312H569.028V33.788C569.028 34.604 569.196 35.124 569.532 35.348C569.876 35.572 570.42 35.684 571.164 35.684C571.604 35.684 572 35.66 572.352 35.612C572.704 35.556 573.028 35.484 573.324 35.396C573.628 35.3 573.916 35.196 574.188 35.084V37.616C573.628 37.816 573.048 37.96 572.448 38.048C571.848 38.144 571.132 38.192 570.3 38.192ZM563.4 27.296V24.896H573.216V27.296H563.4ZM583.059 37.64V28.832C583.059 28.48 583.135 28.152 583.287 27.848C583.439 27.544 583.771 27.376 584.283 27.344L583.059 26.804L582.927 25.76L585.711 24.908L585.663 37.64H583.059ZM578.955 38V35.888H589.383V38H578.955ZM578.355 27.344V24.908H585.711L584.811 27.344H578.355ZM584.223 22.712C583.679 22.712 583.215 22.528 582.831 22.16C582.447 21.792 582.255 21.308 582.255 20.708C582.255 20.092 582.447 19.596 582.831 19.22C583.215 18.844 583.679 18.656 584.223 18.656C584.767 18.656 585.231 18.844 585.615 19.22C585.999 19.596 586.191 20.092 586.191 20.708C586.191 21.308 585.999 21.792 585.615 22.16C585.231 22.528 584.767 22.712 584.223 22.712ZM599.081 38.192C598.417 38.192 597.773 38.08 597.149 37.856C596.525 37.632 596.009 37.248 595.601 36.704C595.201 36.152 595.001 35.396 595.001 34.436V29.168C595.001 29 595.037 28.776 595.109 28.496C595.189 28.216 595.321 27.956 595.505 27.716C595.697 27.476 595.965 27.336 596.309 27.296L595.001 25.424L595.061 25.088L595.697 20.312H597.809V33.788C597.809 34.604 597.977 35.124 598.313 35.348C598.657 35.572 599.201 35.684 599.945 35.684C600.385 35.684 600.781 35.66 601.133 35.612C601.485 35.556 601.809 35.484 602.105 35.396C602.409 35.3 602.697 35.196 602.969 35.084V37.616C602.409 37.816 601.829 37.96 601.229 38.048C600.629 38.144 599.913 38.192 599.081 38.192ZM592.181 27.296V24.896H601.997V27.296H592.181ZM624.526 32.024C624.318 32.024 624.13 31.944 623.962 31.784C623.802 31.616 623.722 31.384 623.722 31.088L622.882 30.248L623.722 29.576H627.19C627.902 29.576 628.494 29.456 628.966 29.216C629.438 28.976 629.794 28.608 630.034 28.112C630.274 27.608 630.394 26.972 630.394 26.204C630.394 25.396 630.254 24.764 629.974 24.308C629.702 23.852 629.31 23.532 628.798 23.348C628.286 23.156 627.678 23.06 626.974 23.06H623.65L622.618 20.552C622.898 20.552 623.234 20.552 623.626 20.552C624.026 20.552 624.438 20.552 624.862 20.552C625.294 20.552 625.694 20.552 626.062 20.552C626.438 20.552 626.742 20.552 626.974 20.552C628.99 20.552 630.518 20.992 631.558 21.872C632.606 22.744 633.13 24.172 633.13 26.156C633.13 26.892 633.026 27.608 632.818 28.304C632.618 29 632.286 29.628 631.822 30.188C631.366 30.748 630.754 31.196 629.986 31.532C629.226 31.86 628.286 32.024 627.166 32.024H624.526ZM621.034 38V20.552H623.722V38H621.034ZM639.385 38.144C638.185 38.144 637.225 37.812 636.505 37.148C635.785 36.484 635.425 35.584 635.425 34.448C635.425 33.48 635.741 32.68 636.373 32.048C637.005 31.416 637.945 30.988 639.193 30.764C639.785 30.66 640.369 30.572 640.945 30.5C641.529 30.428 642.045 30.372 642.493 30.332C642.949 30.284 643.277 30.252 643.477 30.236V29.228C643.477 28.364 643.273 27.756 642.865 27.404C642.465 27.044 641.849 26.864 641.017 26.864C640.185 26.864 639.529 27.032 639.049 27.368C638.577 27.696 638.349 28.36 638.365 29.36H635.929C635.841 28.392 636.001 27.556 636.409 26.852C636.817 26.148 637.417 25.608 638.209 25.232C639.009 24.848 639.949 24.656 641.029 24.656C642.645 24.656 643.881 25.064 644.737 25.88C645.601 26.688 646.033 27.904 646.033 29.528V38H643.477V35.084C643.325 35.668 643.045 36.192 642.637 36.656C642.237 37.112 641.753 37.476 641.185 37.748C640.625 38.012 640.025 38.144 639.385 38.144ZM640.297 36.056C640.729 36.056 641.177 35.972 641.641 35.804C642.105 35.628 642.509 35.404 642.853 35.132C643.205 34.852 643.413 34.556 643.477 34.244V31.796C643.365 31.804 643.157 31.832 642.853 31.88C642.549 31.92 642.225 31.968 641.881 32.024C641.537 32.072 641.233 32.124 640.969 32.18C639.961 32.38 639.257 32.636 638.857 32.948C638.465 33.26 638.269 33.696 638.269 34.256C638.269 34.808 638.441 35.248 638.785 35.576C639.137 35.896 639.641 36.056 640.297 36.056ZM650.524 43.172V40.604H651.544C652.152 40.604 652.624 40.552 652.96 40.448C653.296 40.344 653.544 40.184 653.704 39.968C653.872 39.76 654 39.504 654.088 39.2C654.176 38.872 654.272 38.612 654.376 38.42C654.48 38.228 654.624 38.088 654.808 38H653.932L649.408 24.908H652.456L654.052 30.728L655.468 35.324H655.576L656.884 30.74L658.48 24.908H661.516L657.016 38C656.744 38.792 656.456 39.508 656.152 40.148C655.856 40.788 655.508 41.332 655.108 41.78C654.708 42.228 654.22 42.572 653.644 42.812C653.076 43.052 652.376 43.172 651.544 43.172H650.524ZM669.834 38.204C669.17 38.204 668.526 38.144 667.902 38.024C667.286 37.904 666.722 37.696 666.21 37.4C665.698 37.104 665.274 36.696 664.938 36.176C664.602 35.648 664.386 34.98 664.29 34.172H667.086C667.158 34.852 667.466 35.332 668.01 35.612C668.554 35.884 669.17 36.02 669.858 36.02C670.674 36.02 671.318 35.908 671.79 35.684C672.262 35.46 672.498 35.056 672.498 34.472C672.498 34.128 672.39 33.836 672.174 33.596C671.958 33.348 671.626 33.136 671.178 32.96C670.73 32.776 670.154 32.608 669.45 32.456C668.866 32.328 668.294 32.184 667.734 32.024C667.182 31.856 666.682 31.632 666.234 31.352C665.794 31.064 665.442 30.684 665.178 30.212C664.914 29.74 664.782 29.128 664.782 28.376C664.782 27.616 664.982 26.96 665.382 26.408C665.782 25.856 666.358 25.428 667.11 25.124C667.862 24.82 668.762 24.668 669.81 24.668C670.626 24.668 671.398 24.792 672.126 25.04C672.854 25.288 673.458 25.692 673.938 26.252C674.418 26.804 674.678 27.544 674.718 28.472H672.066C672.026 28.088 671.91 27.776 671.718 27.536C671.526 27.296 671.266 27.12 670.938 27.008C670.618 26.896 670.238 26.84 669.798 26.84C669.262 26.84 668.81 26.896 668.442 27.008C668.074 27.12 667.794 27.288 667.602 27.512C667.41 27.728 667.314 28.004 667.314 28.34C667.314 28.668 667.434 28.952 667.674 29.192C667.914 29.424 668.274 29.632 668.754 29.816C669.234 29.992 669.83 30.164 670.542 30.332C670.982 30.436 671.466 30.568 671.994 30.728C672.522 30.88 673.026 31.096 673.506 31.376C673.986 31.648 674.378 32.012 674.682 32.468C674.994 32.924 675.15 33.5 675.15 34.196C675.15 35.428 674.73 36.404 673.89 37.124C673.05 37.844 671.698 38.204 669.834 38.204Z" fill="black"/>
<rect x="687" y="16" width="185" height="30" rx="5" fill="#D9D9D9" fill-opacity="0.88"/>
<mask id="path-9-inside-2_776_64" fill="white">
<path d="M5 60H222V623H5V60Z"/>
</mask>
<path d="M5 60H222V623H5V60Z" fill="#D9D9D9" fill-opacity="0.6"/>
<path d="M221 60V623H223V60H221Z" fill="black" mask="url(#path-9-inside-2_776_64)"/>
<line x1="4" y1="623.5" x2="222" y2="623.5" stroke="black"/>
<defs>
<filter id="filter0_d_776_64" x="0" y="0" width="1013" height="781" filterUnits="userSpaceOnUse" color-interpolation-filters="sRGB">
<feFlood flood-opacity="0" result="BackgroundImageFix"/>
<feColorMatrix in="SourceAlpha" type="matrix" values="0 0 0 0 0 0 0 0 0 0 0 0 0 0 0 0 0 0 127 0" result="hardAlpha"/>
<feOffset dy="4"/>
<feGaussianBlur stdDeviation="2"/>
<feComposite in2="hardAlpha" operator="out"/>
<feColorMatrix type="matrix" values="0 0 0 0 0 0 0 0 0 0 0 0 0 0 0 0 0 0 0.25 0"/>
<feBlend mode="normal" in2="BackgroundImageFix" result="effect1_dropShadow_776_64"/>
<feBlend mode="normal" in="SourceGraphic" in2="effect1_dropShadow_776_64" result="shape"/>
</filter>
</defs>
</svg>
