<svg width="48" height="26" viewBox="0 0 48 26" fill="none" xmlns="http://www.w3.org/2000/svg">
<mask id="path-1-inside-1_81_14" fill="white">
<rect y="6" width="20" height="20" rx="1"/>
</mask>
<rect y="6" width="20" height="20" rx="1" fill="#FAFAFA" stroke="#5F6368" stroke-width="4" mask="url(#path-1-inside-1_81_14)"/>
<rect x="11" y="8" width="37" height="15" fill="#FAFAFA"/>
<mask id="mask0_81_14" style="mask-type:alpha" maskUnits="userSpaceOnUse" x="4" y="0" width="24" height="24">
<rect x="4.94641" y="0.765625" width="23" height="23" fill="#D9D9D9"/>
</mask>
<g mask="url(#mask0_81_14)">
<path d="M9.73808 18.974H11.1037L20.4714 9.60625L19.1058 8.24062L9.73808 17.6083V18.974ZM7.82141 20.8906V16.8177L20.4714 4.19167C20.6631 4.01597 20.8747 3.88021 21.1063 3.78437C21.3379 3.68854 21.5815 3.64062 21.837 3.64062C22.0926 3.64062 22.3402 3.68854 22.5797 3.78437C22.8193 3.88021 23.027 4.02396 23.2027 4.21562L24.5204 5.55729C24.712 5.73299 24.8518 5.94062 24.9396 6.18021C25.0275 6.41979 25.0714 6.65937 25.0714 6.89896C25.0714 7.15451 25.0275 7.39809 24.9396 7.62969C24.8518 7.86128 24.712 8.07292 24.5204 8.26458L11.8943 20.8906H7.82141ZM19.7766 8.93542L19.1058 8.24062L20.4714 9.60625L19.7766 8.93542Z" fill="#5F6368"/>
</g>
</svg>
