<svg width="25" height="25" viewBox="0 0 25 25" fill="none" xmlns="http://www.w3.org/2000/svg">
<g clip-path="url(#clip0_77_387)">
<path d="M24.8362 0.901313C24.6932 0.769282 24.4879 0.729926 24.3076 0.799507L0.327889 9.9832C0.154989 10.0494 0.0316976 10.2037 0.00528159 10.3867C-0.0211344 10.5698 0.0533773 10.7527 0.20035 10.865L7.62843 16.5656C7.62823 16.5712 7.60035 16.5765 7.60035 16.5823V20.6639C7.60035 20.8519 7.73038 21.0249 7.8963 21.1138C7.97154 21.1541 8.06768 21.1741 8.15015 21.1741C8.24908 21.1741 8.3543 21.1452 8.43975 21.0884L11.18 19.2638L17.5457 24.1305C17.6359 24.1995 17.7458 24.2354 17.8565 24.2354C17.9095 24.2354 17.9632 24.2271 18.015 24.2102C18.1747 24.1581 18.2988 24.0309 18.3464 23.8697L24.9791 1.4205C25.0341 1.23442 24.9787 1.0331 24.8362 0.901313ZM8.3255 15.6991C8.3067 15.7167 8.29132 15.7364 8.27574 15.7559L1.54586 10.6095L22.2913 2.6644L8.3255 15.6991ZM8.62071 19.7105V17.3446L10.2736 18.6086L8.62071 19.7105ZM17.5779 22.8693L11.639 18.3277C11.5773 18.2413 11.4937 18.1798 11.4005 18.1455L9.09146 16.3797L23.4566 2.97216L17.5779 22.8693Z" fill="black"/>
</g>
<defs>
<clipPath id="clip0_77_387">
<rect width="25" height="25" fill="white"/>
</clipPath>
</defs>
</svg>
