<svg width="115" height="115" viewBox="0 0 115 115" fill="none" xmlns="http://www.w3.org/2000/svg">
<rect width="115" height="115" rx="10" fill="#667182"/>
<path d="M36.9435 62.7341C36.2835 62.7341 35.7235 62.4941 35.2635 62.0141C34.8235 61.5341 34.6035 60.9141 34.6035 60.1541L32.5335 56.6741L34.6035 54.9641H39.7635C41.3835 54.9641 42.7035 54.7241 43.7235 54.2441C44.7435 53.7641 45.4935 53.0141 45.9735 51.9941C46.4535 50.9541 46.6935 49.6041 46.6935 47.9441C46.6935 46.4441 46.4335 45.2141 45.9135 44.2541C45.3935 43.2941 44.6135 42.5941 43.5735 42.1541C42.5335 41.6941 41.2335 41.4641 39.6735 41.4641H34.4535L31.8735 33.6041C32.4535 33.6041 33.1335 33.6041 33.9135 33.6041C34.7135 33.6041 35.5435 33.6041 36.4035 33.6041C37.2635 33.6041 38.0735 33.6041 38.8335 33.6041C39.5935 33.6041 40.2335 33.6041 40.7535 33.6041C45.8335 33.6041 49.7235 34.7141 52.4235 36.9341C55.1235 39.1541 56.4735 42.6641 56.4735 47.4641C56.4735 49.4841 56.1935 51.4141 55.6335 53.2541C55.0735 55.0741 54.1735 56.7041 52.9335 58.1441C51.7135 59.5641 50.1035 60.6841 48.1035 61.5041C46.1035 62.3241 43.6735 62.7341 40.8135 62.7341H36.9435ZM25.1235 77.2241V33.6041H34.6035V77.2241H25.1235ZM75.5901 77.7341C73.4301 77.7341 71.4801 77.5041 69.7401 77.0441C68.0201 76.5841 66.5401 75.8941 65.3001 74.9741C64.0801 74.0341 63.1201 72.8541 62.4201 71.4341C61.7401 69.9941 61.3601 68.3141 61.2801 66.3941H70.2801C70.4601 67.9541 71.0801 69.1241 72.1401 69.9041C73.2201 70.6841 74.4201 71.0741 75.7401 71.0741C77.1201 71.0741 78.2701 70.8741 79.1901 70.4741C80.1301 70.0741 80.6001 69.2941 80.6001 68.1341C80.6001 67.2741 80.3101 66.6241 79.7301 66.1841C79.1701 65.7441 78.3501 65.3741 77.2701 65.0741C76.2101 64.7741 74.9301 64.3941 73.4301 63.9341C71.9301 63.4741 70.5201 62.9841 69.2001 62.4641C67.8801 61.9241 66.7101 61.2841 65.6901 60.5441C64.6701 59.7841 63.8701 58.8541 63.2901 57.7541C62.7301 56.6541 62.4501 55.3141 62.4501 53.7341C62.4501 51.3941 63.0001 49.5041 64.1001 48.0641C65.2201 46.6041 66.7501 45.5441 68.6901 44.8841C70.6501 44.2241 72.9001 43.8941 75.4401 43.8941C77.8001 43.8941 79.9301 44.2041 81.8301 44.8241C83.7301 45.4441 85.3001 46.5441 86.5401 48.1241C87.7801 49.7041 88.5701 51.9341 88.9101 54.8141L79.8801 54.7541C79.6601 53.4741 79.3101 52.5241 78.8301 51.9041C78.3501 51.2641 77.7901 50.8441 77.1501 50.6441C76.5301 50.4241 75.8901 50.3141 75.2301 50.3141C74.3701 50.3141 73.6401 50.4241 73.0401 50.6441C72.4601 50.8641 72.0201 51.1841 71.7201 51.6041C71.4201 52.0241 71.2701 52.5541 71.2701 53.1941C71.2701 53.8541 71.5101 54.4341 71.9901 54.9341C72.4901 55.4141 73.2601 55.8541 74.3001 56.2541C75.3401 56.6541 76.6601 57.0841 78.2601 57.5441C79.5801 57.9041 80.9101 58.2941 82.2501 58.7141C83.6101 59.1141 84.8501 59.6441 85.9701 60.3041C87.1101 60.9641 88.0201 61.8541 88.7001 62.9741C89.4001 64.0741 89.7501 65.5241 89.7501 67.3241C89.7501 70.8241 88.4701 73.4341 85.9101 75.1541C83.3701 76.8741 79.9301 77.7341 75.5901 77.7341Z" fill="#C5DCFF"/>
</svg>
