<svg width="33" height="33" viewBox="0 0 33 33" fill="none" xmlns="http://www.w3.org/2000/svg">
<g clip-path="url(#clip0_79_5)">
<path d="M19.8564 18.3919L20.5885 21.1239L19.5885 22.856L15.2583 20.356L12.2583 25.5521L10.8923 25.9182L10.5263 24.5521L13.5263 19.356L9.19617 16.856L10.1962 15.1239L12.9282 14.3919L16.4282 8.32971L15.5622 7.82971L16.5622 6.09766L25.2224 11.0977L24.2224 12.8297L23.3564 12.3297L19.8564 18.3919ZM12.6643 16.5489L18.1203 19.6989L17.6994 18.128L21.6244 11.3297L18.1603 9.32971L14.2353 16.128L12.6643 16.5489Z" fill="#5F6368"/>
<rect x="17.8416" y="8.84961" width="4.8" height="10.4528" transform="rotate(30 17.8416 8.84961)" fill="#5F6368"/>
<rect x="13.9545" y="12.8662" width="7.14175" height="5.76" transform="rotate(30 13.9545 12.8662)" fill="#5F6368"/>
</g>
<defs>
<clipPath id="clip0_79_5">
<rect width="24" height="24" fill="white" transform="translate(12) rotate(30)"/>
</clipPath>
</defs>
</svg>
