<svg width="1113" height="744" viewBox="0 0 1113 744" fill="none" xmlns="http://www.w3.org/2000/svg">
<g filter="url(#filter0_d_52_1008)">
<rect x="4" width="1105" height="736" rx="20" fill="#FAFAFA"/>
<rect x="4.5" y="0.5" width="1104" height="735" rx="19.5" stroke="black"/>
</g>
<line x1="4" y1="81" x2="1109" y2="81" stroke="black"/>
<path d="M508.312 49.032C508.035 49.032 507.784 48.9253 507.56 48.712C507.347 48.488 507.24 48.1787 507.24 47.784L506.12 46.664L507.24 45.768H511.864C512.814 45.768 513.603 45.608 514.232 45.288C514.862 44.968 515.336 44.4773 515.656 43.816C515.976 43.144 516.136 42.296 516.136 41.272C516.136 40.1947 515.95 39.352 515.576 38.744C515.214 38.136 514.691 37.7093 514.008 37.464C513.326 37.208 512.515 37.08 511.576 37.08H507.144L505.768 33.736C506.142 33.736 506.59 33.736 507.112 33.736C507.646 33.736 508.195 33.736 508.76 33.736C509.336 33.736 509.87 33.736 510.36 33.736C510.862 33.736 511.267 33.736 511.576 33.736C514.264 33.736 516.302 34.3227 517.688 35.496C519.086 36.6587 519.784 38.5627 519.784 41.208C519.784 42.1893 519.646 43.144 519.368 44.072C519.102 45 518.659 45.8373 518.04 46.584C517.432 47.3307 516.616 47.928 515.592 48.376C514.579 48.8133 513.326 49.032 511.832 49.032H508.312ZM503.656 57V33.736H507.24V57H503.656ZM531.644 57.24C530.097 57.24 528.748 56.8987 527.596 56.216C526.444 55.5227 525.548 54.504 524.908 53.16C524.268 51.8053 523.948 50.1413 523.948 48.168C523.948 46.3013 524.284 44.7013 524.956 43.368C525.628 42.024 526.545 40.9947 527.708 40.28C528.87 39.5547 530.182 39.192 531.644 39.192C533.233 39.192 534.604 39.5547 535.756 40.28C536.908 40.9947 537.793 42.024 538.412 43.368C539.03 44.7013 539.34 46.3013 539.34 48.168C539.34 50.1413 538.993 51.8053 538.3 53.16C537.617 54.504 536.694 55.5227 535.532 56.216C534.369 56.8987 533.073 57.24 531.644 57.24ZM531.644 54.152C532.838 54.152 533.809 53.6827 534.556 52.744C535.313 51.7947 535.692 50.2693 535.692 48.168C535.692 46.2267 535.329 44.76 534.604 43.768C533.889 42.776 532.902 42.28 531.644 42.28C530.438 42.28 529.462 42.7707 528.716 43.752C527.969 44.7227 527.596 46.1947 527.596 48.168C527.596 50.1627 527.969 51.6613 528.716 52.664C529.473 53.656 530.449 54.152 531.644 54.152ZM544.767 57V54.184H557.231V57H544.767ZM544.687 42.792V39.496H549.935V42.792H544.687ZM547.999 56.68V44.328C547.999 43.7947 548.106 43.4213 548.319 43.208C548.533 42.9947 548.895 42.856 549.407 42.792L547.999 41.448V39.496H551.039L551.327 44.2C551.573 43.176 551.978 42.2907 552.543 41.544C553.119 40.7867 553.797 40.2053 554.575 39.8C555.365 39.384 556.181 39.176 557.023 39.176C558.442 39.176 559.53 39.7147 560.287 40.792C561.045 41.8587 561.386 43.5067 561.311 45.736H557.823C557.802 44.5733 557.621 43.7467 557.279 43.256C556.938 42.7547 556.298 42.504 555.359 42.504C554.634 42.504 553.898 42.7653 553.151 43.288C552.415 43.8107 551.893 44.408 551.583 45.08V52.856C551.583 53.24 551.498 53.5387 551.327 53.752C551.167 53.9547 550.927 54.0987 550.607 54.184L551.583 54.872V56.68H547.999ZM575.123 57.256C574.237 57.256 573.379 57.1067 572.547 56.808C571.715 56.5093 571.027 55.9973 570.483 55.272C569.949 54.536 569.683 53.528 569.683 52.248V45.224C569.683 45 569.731 44.7013 569.827 44.328C569.933 43.9547 570.109 43.608 570.355 43.288C570.611 42.968 570.968 42.7813 571.427 42.728L569.683 40.232L569.763 39.784L570.611 33.416H573.427V51.384C573.427 52.472 573.651 53.1653 574.099 53.464C574.557 53.7627 575.283 53.912 576.275 53.912C576.861 53.912 577.389 53.88 577.859 53.816C578.328 53.7413 578.76 53.6453 579.155 53.528C579.56 53.4 579.944 53.2613 580.307 53.112V56.488C579.56 56.7547 578.787 56.9467 577.987 57.064C577.187 57.192 576.232 57.256 575.123 57.256ZM565.923 42.728V39.528H579.011V42.728H565.923ZM591.622 56.36V45.832C591.622 44.8507 591.745 44.104 591.99 43.592C592.246 43.08 592.822 42.7813 593.718 42.696L591.622 40.248V36.616C591.622 35.1973 591.91 34.0293 592.486 33.112C593.062 32.184 593.868 31.496 594.902 31.048C595.937 30.6 597.142 30.376 598.518 30.376C598.966 30.376 599.452 30.3973 599.974 30.44C600.508 30.472 600.998 30.5093 601.446 30.552C601.905 30.5947 602.241 30.6373 602.454 30.68V34.056C602.23 33.9707 601.889 33.8907 601.43 33.816C600.972 33.7413 600.492 33.6827 599.99 33.64C599.489 33.5973 599.052 33.576 598.678 33.576C598.006 33.576 597.393 33.6667 596.838 33.848C596.294 34.0293 595.857 34.3333 595.526 34.76C595.196 35.1867 595.03 35.7787 595.03 36.536V56.36H591.622ZM588.39 57V54.152H600.358V57H588.39ZM587.766 42.696V39.528H600.518V42.696H587.766ZM614.794 57.24C613.247 57.24 611.898 56.8987 610.746 56.216C609.594 55.5227 608.698 54.504 608.058 53.16C607.418 51.8053 607.098 50.1413 607.098 48.168C607.098 46.3013 607.434 44.7013 608.106 43.368C608.778 42.024 609.695 40.9947 610.858 40.28C612.02 39.5547 613.332 39.192 614.794 39.192C616.383 39.192 617.754 39.5547 618.906 40.28C620.058 40.9947 620.943 42.024 621.562 43.368C622.18 44.7013 622.49 46.3013 622.49 48.168C622.49 50.1413 622.143 51.8053 621.45 53.16C620.767 54.504 619.844 55.5227 618.682 56.216C617.519 56.8987 616.223 57.24 614.794 57.24ZM614.794 54.152C615.988 54.152 616.959 53.6827 617.706 52.744C618.463 51.7947 618.842 50.2693 618.842 48.168C618.842 46.2267 618.479 44.76 617.754 43.768C617.039 42.776 616.052 42.28 614.794 42.28C613.588 42.28 612.612 42.7707 611.866 43.752C611.119 44.7227 610.746 46.1947 610.746 48.168C610.746 50.1627 611.119 51.6613 611.866 52.664C612.623 53.656 613.599 54.152 614.794 54.152ZM638.493 57.256C637.491 57.256 636.552 57.1173 635.677 56.84C634.813 56.5627 634.115 56.0613 633.581 55.336C633.048 54.6107 632.781 53.5813 632.781 52.248V36.776C632.781 36.3387 632.877 35.992 633.069 35.736C633.261 35.4693 633.539 35.3147 633.901 35.272H627.917V32.104H636.557L636.493 51.384C636.493 52.4507 636.696 53.1387 637.101 53.448C637.517 53.7573 638.205 53.912 639.165 53.912C640.104 53.912 640.888 53.8373 641.517 53.688C642.157 53.5387 642.723 53.3467 643.213 53.112V56.488C642.616 56.712 641.891 56.8933 641.037 57.032C640.195 57.1813 639.347 57.256 638.493 57.256ZM656.097 56.52V44.776C656.097 44.3067 656.198 43.8693 656.401 43.464C656.603 43.0587 657.046 42.8347 657.729 42.792L656.097 42.072L655.921 40.68L659.633 39.544L659.569 56.52H656.097ZM650.625 57V54.184H664.529V57H650.625ZM649.825 42.792V39.544H659.633L658.433 42.792H649.825ZM657.649 36.616C656.923 36.616 656.305 36.3707 655.793 35.88C655.281 35.3893 655.025 34.744 655.025 33.944C655.025 33.1227 655.281 32.4613 655.793 31.96C656.305 31.4587 656.923 31.208 657.649 31.208C658.374 31.208 658.993 31.4587 659.505 31.96C660.017 32.4613 660.273 33.1227 660.273 33.944C660.273 34.744 660.017 35.3893 659.505 35.88C658.993 36.3707 658.374 36.616 657.649 36.616ZM677.156 57.24C675.61 57.24 674.26 56.8987 673.108 56.216C671.956 55.5227 671.06 54.504 670.42 53.16C669.78 51.8053 669.46 50.1413 669.46 48.168C669.46 46.3013 669.796 44.7013 670.468 43.368C671.14 42.024 672.058 40.9947 673.22 40.28C674.383 39.5547 675.695 39.192 677.156 39.192C678.746 39.192 680.116 39.5547 681.268 40.28C682.42 40.9947 683.306 42.024 683.924 43.368C684.543 44.7013 684.852 46.3013 684.852 48.168C684.852 50.1413 684.506 51.8053 683.812 53.16C683.13 54.504 682.207 55.5227 681.044 56.216C679.882 56.8987 678.586 57.24 677.156 57.24ZM677.156 54.152C678.351 54.152 679.322 53.6827 680.068 52.744C680.826 51.7947 681.204 50.2693 681.204 48.168C681.204 46.2267 680.842 44.76 680.116 43.768C679.402 42.776 678.415 42.28 677.156 42.28C675.951 42.28 674.975 42.7707 674.228 43.752C673.482 44.7227 673.108 46.1947 673.108 48.168C673.108 50.1627 673.482 51.6613 674.228 52.664C674.986 53.656 675.962 54.152 677.156 54.152Z" fill="black"/>
<rect x="233" y="29" width="250" height="30" rx="5" fill="#D9D9D9" fill-opacity="0.88"/>
<rect x="702" y="29" width="250" height="30" rx="5" fill="#D9D9D9" fill-opacity="0.88"/>
<mask id="path-7-inside-1_52_1008" fill="white">
<path d="M1079 82H1109V716C1109 727.046 1100.05 736 1089 736H1079V82Z"/>
</mask>
<path d="M1079 82H1109V716C1109 727.046 1100.05 736 1089 736H1079V82Z" fill="#FAFAFA"/>
<path d="M1079 82H1109H1079ZM1110 716C1110 727.598 1100.6 737 1089 737H1078L1080 735H1089C1099.49 735 1108 726.493 1108 716H1110ZM1078 737V82H1080V735L1078 737ZM1110 82V716C1110 727.598 1100.6 737 1089 737V735C1099.49 735 1108 726.493 1108 716V82H1110Z" fill="black" mask="url(#path-7-inside-1_52_1008)"/>
<defs>
<filter id="filter0_d_52_1008" x="0" y="0" width="1113" height="744" filterUnits="userSpaceOnUse" color-interpolation-filters="sRGB">
<feFlood flood-opacity="0" result="BackgroundImageFix"/>
<feColorMatrix in="SourceAlpha" type="matrix" values="0 0 0 0 0 0 0 0 0 0 0 0 0 0 0 0 0 0 127 0" result="hardAlpha"/>
<feOffset dy="4"/>
<feGaussianBlur stdDeviation="2"/>
<feComposite in2="hardAlpha" operator="out"/>
<feColorMatrix type="matrix" values="0 0 0 0 0 0 0 0 0 0 0 0 0 0 0 0 0 0 0.25 0"/>
<feBlend mode="normal" in2="BackgroundImageFix" result="effect1_dropShadow_52_1008"/>
<feBlend mode="normal" in="SourceGraphic" in2="effect1_dropShadow_52_1008" result="shape"/>
</filter>
</defs>
</svg>
