<svg width="200" height="139" viewBox="0 0 200 139" fill="none" xmlns="http://www.w3.org/2000/svg">
<rect x="0.5" y="14.2202" width="199" height="123.482" rx="14.5" fill="#BBB4D0" stroke="black"/>
<mask id="path-2-inside-1_49_573" fill="white">
<path d="M111 20C111 11.7157 117.716 5 126 5H185C193.284 5 200 11.7157 200 20V35H111V20Z"/>
</mask>
<path d="M111 20C111 11.7157 117.716 5 126 5H185C193.284 5 200 11.7157 200 20V35H111V20Z" fill="#BBB4D0"/>
<path d="M110 20C110 11.1634 117.163 4 126 4H185C193.837 4 201 11.1634 201 20H199C199 12.268 192.732 6 185 6H126C118.268 6 112 12.268 112 20H110ZM200 35H111H200ZM110 35V20C110 11.1634 117.163 4 126 4V6C118.268 6 112 12.268 112 20V35H110ZM185 4C193.837 4 201 11.1634 201 20V35H199V20C199 12.268 192.732 6 185 6V4Z" fill="black" mask="url(#path-2-inside-1_49_573)"/>
<path d="M117.394 9.56152C121.712 4.88165 129.057 4.80892 133.469 9.34277L133.677 9.56152C140.225 16.6583 135.191 28.1513 125.536 28.1514C116.031 28.1514 111.004 17.0147 117.095 9.89746L117.394 9.56152Z" fill="#BBB4D0" stroke="black"/>
<rect x="114" y="6" width="28" height="20" rx="10" fill="#BBB4D0"/>
<rect x="101.873" y="15.1011" width="43.4457" height="19.8502" fill="#BBB4D0"/>
</svg>
