<svg width="1113" height="744" viewBox="0 0 1113 744" fill="none" xmlns="http://www.w3.org/2000/svg">
<g filter="url(#filter0_d_756_215)">
<rect x="4" width="1105" height="736" rx="20" fill="#FAFAFA"/>
<rect x="4.5" y="0.5" width="1104" height="735" rx="19.5" stroke="black"/>
</g>
<line x1="4" y1="81" x2="1109" y2="81" stroke="black"/>
<rect x="224" y="29" width="190" height="30" rx="5" fill="#D9D9D9" fill-opacity="0.88"/>
<path d="M435.45 47.532C435.172 47.532 434.922 47.4253 434.698 47.212C434.484 46.988 434.378 46.6787 434.378 46.284L433.258 45.164L434.378 44.268H439.002C439.951 44.268 440.74 44.108 441.37 43.788C441.999 43.468 442.474 42.9773 442.794 42.316C443.114 41.644 443.274 40.796 443.274 39.772C443.274 38.6947 443.087 37.852 442.714 37.244C442.351 36.636 441.828 36.2093 441.146 35.964C440.463 35.708 439.652 35.58 438.714 35.58H434.282L432.906 32.236C433.279 32.236 433.727 32.236 434.25 32.236C434.783 32.236 435.332 32.236 435.898 32.236C436.474 32.236 437.007 32.236 437.498 32.236C437.999 32.236 438.404 32.236 438.714 32.236C441.402 32.236 443.439 32.8227 444.826 33.996C446.223 35.1587 446.922 37.0627 446.922 39.708C446.922 40.6893 446.783 41.644 446.506 42.572C446.239 43.5 445.796 44.3373 445.178 45.084C444.57 45.8307 443.754 46.428 442.73 46.876C441.716 47.3133 440.463 47.532 438.97 47.532H435.45ZM430.794 55.5V32.236H434.378V55.5H430.794ZM451.117 55.5V52.684H463.581V55.5H451.117ZM451.037 41.292V37.996H456.285V41.292H451.037ZM454.349 55.18V42.828C454.349 42.2947 454.456 41.9213 454.669 41.708C454.883 41.4947 455.245 41.356 455.757 41.292L454.349 39.948V37.996H457.389L457.677 42.7C457.923 41.676 458.328 40.7907 458.893 40.044C459.469 39.2867 460.147 38.7053 460.925 38.3C461.715 37.884 462.531 37.676 463.373 37.676C464.792 37.676 465.88 38.2147 466.637 39.292C467.395 40.3587 467.736 42.0067 467.661 44.236H464.173C464.152 43.0733 463.971 42.2467 463.629 41.756C463.288 41.2547 462.648 41.004 461.709 41.004C460.984 41.004 460.248 41.2653 459.501 41.788C458.765 42.3107 458.243 42.908 457.933 43.58V51.356C457.933 51.74 457.848 52.0387 457.677 52.252C457.517 52.4547 457.277 52.5987 456.957 52.684L457.933 53.372V55.18H454.349ZM479.569 55.74C478.022 55.74 476.673 55.3987 475.521 54.716C474.369 54.0227 473.473 53.004 472.833 51.66C472.193 50.3053 471.873 48.6413 471.873 46.668C471.873 44.8013 472.209 43.2013 472.881 41.868C473.553 40.524 474.47 39.4947 475.633 38.78C476.795 38.0547 478.107 37.692 479.569 37.692C481.158 37.692 482.529 38.0547 483.681 38.78C484.833 39.4947 485.718 40.524 486.337 41.868C486.955 43.2013 487.265 44.8013 487.265 46.668C487.265 48.6413 486.918 50.3053 486.225 51.66C485.542 53.004 484.619 54.0227 483.457 54.716C482.294 55.3987 480.998 55.74 479.569 55.74ZM479.569 52.652C480.763 52.652 481.734 52.1827 482.481 51.244C483.238 50.2947 483.617 48.7693 483.617 46.668C483.617 44.7267 483.254 43.26 482.529 42.268C481.814 41.276 480.827 40.78 479.569 40.78C478.363 40.78 477.387 41.2707 476.641 42.252C475.894 43.2227 475.521 44.6947 475.521 46.668C475.521 48.6627 475.894 50.1613 476.641 51.164C477.398 52.156 478.374 52.652 479.569 52.652ZM500.756 62.764C499.06 62.764 497.599 62.5507 496.372 62.124C495.156 61.6973 494.218 61.1107 493.556 60.364C492.895 59.6173 492.564 58.764 492.564 57.804C492.564 57.0147 492.762 56.3587 493.156 55.836C493.551 55.3133 494.036 54.9133 494.612 54.636C495.188 54.3587 495.748 54.204 496.292 54.172L497.124 54.252C496.975 54.412 496.815 54.6093 496.644 54.844C496.474 55.0787 496.33 55.3613 496.212 55.692C496.106 56.0227 496.052 56.4067 496.052 56.844C496.052 57.3987 496.186 57.8947 496.452 58.332C496.719 58.78 497.188 59.132 497.86 59.388C498.532 59.644 499.471 59.772 500.676 59.772C502.202 59.772 503.306 59.5587 503.988 59.132C504.671 58.7053 505.012 58.0707 505.012 57.228C505.012 56.652 504.826 56.2253 504.452 55.948C504.079 55.6813 503.364 55.4787 502.308 55.34L498.164 54.78C496.788 54.588 495.759 54.3053 495.076 53.932C494.394 53.548 493.94 53.1373 493.716 52.7C493.492 52.2627 493.38 51.868 493.38 51.516C493.38 50.9187 493.546 50.428 493.876 50.044C494.218 49.66 494.628 49.3613 495.108 49.148C495.588 48.9347 496.063 48.7907 496.532 48.716C497.012 48.6413 497.386 48.62 497.652 48.652C497.354 48.8013 497.108 48.9933 496.916 49.228C496.724 49.4627 496.628 49.804 496.628 50.252C496.628 50.7427 496.783 51.1107 497.092 51.356C497.412 51.5907 497.972 51.7613 498.772 51.868L502.9 52.412C504.458 52.6147 505.642 52.9667 506.452 53.468C507.274 53.9587 507.834 54.5347 508.132 55.196C508.431 55.8467 508.58 56.524 508.58 57.228C508.58 58.092 508.41 58.8653 508.068 59.548C507.738 60.2413 507.242 60.8227 506.58 61.292C505.919 61.772 505.103 62.1347 504.132 62.38C503.162 62.636 502.036 62.764 500.756 62.764ZM500.724 49.356C498.687 49.356 497.055 48.8333 495.828 47.788C494.602 46.732 493.988 45.3187 493.988 43.548C493.988 41.7453 494.607 40.3213 495.844 39.276C497.092 38.22 498.73 37.708 500.756 37.74C502.047 37.7613 503.194 38.0067 504.196 38.476C505.21 38.9347 506.004 39.596 506.58 40.46C507.167 41.324 507.46 42.3693 507.46 43.596C507.46 45.3667 506.847 46.7693 505.62 47.804C504.394 48.8387 502.762 49.356 500.724 49.356ZM500.74 46.572C501.882 46.572 502.73 46.316 503.284 45.804C503.839 45.2813 504.116 44.54 504.116 43.58C504.116 42.5987 503.834 41.8467 503.268 41.324C502.714 40.7907 501.86 40.524 500.708 40.524C499.578 40.524 498.735 40.7853 498.18 41.308C497.626 41.82 497.348 42.5507 497.348 43.5C497.348 44.4813 497.626 45.2387 498.18 45.772C498.746 46.3053 499.599 46.572 500.74 46.572ZM502.676 38.364L502.468 38.204C502.564 37.2653 502.826 36.5187 503.252 35.964C503.679 35.3987 504.202 34.9933 504.82 34.748C505.45 34.492 506.095 34.364 506.756 34.364C506.97 34.364 507.167 34.3747 507.348 34.396C507.54 34.4173 507.7 34.4547 507.828 34.508V37.868C507.498 37.8147 507.204 37.772 506.948 37.74C506.703 37.6973 506.34 37.676 505.86 37.676C505.562 37.676 505.22 37.676 504.836 37.676C504.452 37.676 504.068 37.724 503.684 37.82C503.311 37.9053 502.975 38.0867 502.676 38.364ZM513.48 55.5V52.684H525.944V55.5H513.48ZM513.4 41.292V37.996H518.648V41.292H513.4ZM516.712 55.18V42.828C516.712 42.2947 516.818 41.9213 517.032 41.708C517.245 41.4947 517.608 41.356 518.12 41.292L516.712 39.948V37.996H519.752L520.04 42.7C520.285 41.676 520.69 40.7907 521.256 40.044C521.832 39.2867 522.509 38.7053 523.288 38.3C524.077 37.884 524.893 37.676 525.736 37.676C527.154 37.676 528.242 38.2147 529 39.292C529.757 40.3587 530.098 42.0067 530.024 44.236H526.536C526.514 43.0733 526.333 42.2467 525.992 41.756C525.65 41.2547 525.01 41.004 524.072 41.004C523.346 41.004 522.61 41.2653 521.864 41.788C521.128 42.3107 520.605 42.908 520.296 43.58V51.356C520.296 51.74 520.21 52.0387 520.04 52.252C519.88 52.4547 519.64 52.5987 519.32 52.684L520.296 53.372V55.18H516.712ZM542.571 55.74C541.046 55.74 539.681 55.3987 538.475 54.716C537.281 54.0227 536.337 53.004 535.643 51.66C534.95 50.316 534.603 48.668 534.603 46.716C534.603 44.796 534.934 43.164 535.595 41.82C536.257 40.476 537.153 39.452 538.283 38.748C539.425 38.044 540.705 37.692 542.123 37.692C544.289 37.692 546.043 38.3907 547.387 39.788C548.731 41.1853 549.403 43.1907 549.403 45.804C549.403 46.1667 549.393 46.4547 549.371 46.668C549.35 46.8707 549.334 47.1267 549.323 47.436H538.091C538.113 48.7053 538.342 49.7293 538.779 50.508C539.227 51.276 539.793 51.836 540.475 52.188C541.169 52.5293 541.889 52.7 542.635 52.7C543.457 52.7 544.118 52.556 544.619 52.268C545.121 51.98 545.505 51.404 545.771 50.54H549.035C548.918 51.6493 548.571 52.5933 547.995 53.372C547.43 54.1507 546.683 54.7427 545.755 55.148C544.827 55.5427 543.766 55.74 542.571 55.74ZM538.107 46.108C538.193 45.6387 538.39 45.3187 538.699 45.148C539.009 44.9773 539.435 44.892 539.979 44.892H545.771C545.739 43.5373 545.446 42.508 544.891 41.804C544.337 41.0893 543.457 40.732 542.251 40.732C540.897 40.732 539.867 41.2173 539.163 42.188C538.459 43.1587 538.107 44.4653 538.107 46.108ZM563.023 55.772C562.137 55.772 561.279 55.692 560.447 55.532C559.625 55.372 558.873 55.0947 558.191 54.7C557.508 54.3053 556.943 53.7613 556.495 53.068C556.047 52.364 555.759 51.4733 555.631 50.396H559.359C559.455 51.3027 559.865 51.9427 560.591 52.316C561.316 52.6787 562.137 52.86 563.055 52.86C564.143 52.86 565.001 52.7107 565.631 52.412C566.26 52.1133 566.575 51.5747 566.575 50.796C566.575 50.3373 566.431 49.948 566.143 49.628C565.855 49.2973 565.412 49.0147 564.815 48.78C564.217 48.5347 563.449 48.3107 562.511 48.108C561.732 47.9373 560.969 47.7453 560.223 47.532C559.487 47.308 558.82 47.0093 558.223 46.636C557.636 46.252 557.167 45.7453 556.815 45.116C556.463 44.4867 556.287 43.6707 556.287 42.668C556.287 41.6547 556.553 40.78 557.087 40.044C557.62 39.308 558.388 38.7373 559.391 38.332C560.393 37.9267 561.593 37.724 562.991 37.724C564.079 37.724 565.108 37.8893 566.079 38.22C567.049 38.5507 567.855 39.0893 568.495 39.836C569.135 40.572 569.481 41.5587 569.535 42.796H565.999C565.945 42.284 565.791 41.868 565.535 41.548C565.279 41.228 564.932 40.9933 564.495 40.844C564.068 40.6947 563.561 40.62 562.975 40.62C562.26 40.62 561.657 40.6947 561.167 40.844C560.676 40.9933 560.303 41.2173 560.047 41.516C559.791 41.804 559.663 42.172 559.663 42.62C559.663 43.0573 559.823 43.436 560.143 43.756C560.463 44.0653 560.943 44.3427 561.583 44.588C562.223 44.8227 563.017 45.052 563.967 45.276C564.553 45.4147 565.199 45.5907 565.903 45.804C566.607 46.0067 567.279 46.2947 567.919 46.668C568.559 47.0307 569.081 47.516 569.487 48.124C569.903 48.732 570.111 49.5 570.111 50.428C570.111 52.0707 569.551 53.372 568.431 54.332C567.311 55.292 565.508 55.772 563.023 55.772ZM583.81 55.772C582.925 55.772 582.066 55.692 581.234 55.532C580.413 55.372 579.661 55.0947 578.978 54.7C578.296 54.3053 577.73 53.7613 577.282 53.068C576.834 52.364 576.546 51.4733 576.418 50.396H580.146C580.242 51.3027 580.653 51.9427 581.378 52.316C582.104 52.6787 582.925 52.86 583.842 52.86C584.93 52.86 585.789 52.7107 586.418 52.412C587.048 52.1133 587.362 51.5747 587.362 50.796C587.362 50.3373 587.218 49.948 586.93 49.628C586.642 49.2973 586.2 49.0147 585.602 48.78C585.005 48.5347 584.237 48.3107 583.298 48.108C582.52 47.9373 581.757 47.7453 581.01 47.532C580.274 47.308 579.608 47.0093 579.01 46.636C578.424 46.252 577.954 45.7453 577.602 45.116C577.25 44.4867 577.074 43.6707 577.074 42.668C577.074 41.6547 577.341 40.78 577.874 40.044C578.408 39.308 579.176 38.7373 580.178 38.332C581.181 37.9267 582.381 37.724 583.778 37.724C584.866 37.724 585.896 37.8893 586.866 38.22C587.837 38.5507 588.642 39.0893 589.282 39.836C589.922 40.572 590.269 41.5587 590.322 42.796H586.786C586.733 42.284 586.578 41.868 586.322 41.548C586.066 41.228 585.72 40.9933 585.282 40.844C584.856 40.6947 584.349 40.62 583.762 40.62C583.048 40.62 582.445 40.6947 581.954 40.844C581.464 40.9933 581.09 41.2173 580.834 41.516C580.578 41.804 580.45 42.172 580.45 42.62C580.45 43.0573 580.61 43.436 580.93 43.756C581.25 44.0653 581.73 44.3427 582.37 44.588C583.01 44.8227 583.805 45.052 584.754 45.276C585.341 45.4147 585.986 45.5907 586.69 45.804C587.394 46.0067 588.066 46.2947 588.706 46.668C589.346 47.0307 589.869 47.516 590.274 48.124C590.69 48.732 590.898 49.5 590.898 50.428C590.898 52.0707 590.338 53.372 589.218 54.332C588.098 55.292 586.296 55.772 583.81 55.772ZM625.241 55.82C623.609 55.82 622.169 55.5747 620.921 55.084C619.673 54.5827 618.692 53.7827 617.977 52.684C617.273 51.5747 616.905 50.1133 616.873 48.3H620.361C620.393 49.4307 620.649 50.3107 621.129 50.94C621.609 51.5693 622.228 52.012 622.985 52.268C623.743 52.5133 624.548 52.636 625.401 52.636C626.351 52.636 627.151 52.492 627.801 52.204C628.452 51.916 628.943 51.5373 629.273 51.068C629.615 50.588 629.785 50.0813 629.785 49.548C629.785 48.7587 629.604 48.124 629.241 47.644C628.879 47.1533 628.313 46.732 627.545 46.38C626.777 46.028 625.791 45.6707 624.585 45.308C623.295 44.9133 622.132 44.3907 621.097 43.74C620.063 43.0787 619.247 42.2787 618.649 41.34C618.052 40.4013 617.753 39.324 617.753 38.108C617.753 36.7 618.105 35.5373 618.809 34.62C619.513 33.692 620.441 33.004 621.593 32.556C622.756 32.0973 624.004 31.868 625.337 31.868C627.353 31.868 629.017 32.4173 630.329 33.516C631.641 34.6147 632.431 36.2947 632.697 38.556H629.353C629.257 37.82 629.033 37.1907 628.681 36.668C628.329 36.1453 627.86 35.7453 627.273 35.468C626.697 35.1907 625.999 35.052 625.177 35.052C624.004 35.052 623.044 35.2973 622.297 35.788C621.551 36.268 621.177 36.9933 621.177 37.964C621.177 38.636 621.289 39.2227 621.513 39.724C621.737 40.2147 622.185 40.6733 622.857 41.1C623.529 41.516 624.532 41.9587 625.865 42.428C626.825 42.7587 627.748 43.1107 628.633 43.484C629.519 43.8467 630.308 44.2787 631.001 44.78C631.695 45.2813 632.244 45.9 632.649 46.636C633.055 47.3613 633.257 48.2627 633.257 49.34C633.268 50.684 632.927 51.8413 632.233 52.812C631.54 53.7827 630.585 54.5293 629.369 55.052C628.164 55.564 626.788 55.82 625.241 55.82ZM645.869 55.74C644.322 55.74 642.973 55.3987 641.821 54.716C640.669 54.0227 639.773 53.004 639.133 51.66C638.493 50.3053 638.173 48.6413 638.173 46.668C638.173 44.8013 638.509 43.2013 639.181 41.868C639.853 40.524 640.77 39.4947 641.933 38.78C643.095 38.0547 644.407 37.692 645.869 37.692C647.458 37.692 648.829 38.0547 649.981 38.78C651.133 39.4947 652.018 40.524 652.637 41.868C653.255 43.2013 653.565 44.8013 653.565 46.668C653.565 48.6413 653.218 50.3053 652.525 51.66C651.842 53.004 650.919 54.0227 649.757 54.716C648.594 55.3987 647.298 55.74 645.869 55.74ZM645.869 52.652C647.063 52.652 648.034 52.1827 648.781 51.244C649.538 50.2947 649.917 48.7693 649.917 46.668C649.917 44.7267 649.554 43.26 648.829 42.268C648.114 41.276 647.127 40.78 645.869 40.78C644.663 40.78 643.687 41.2707 642.941 42.252C642.194 43.2227 641.821 44.6947 641.821 46.668C641.821 48.6627 642.194 50.1613 642.941 51.164C643.698 52.156 644.674 52.652 645.869 52.652ZM660.56 45.324V42.412H672.752V45.324H660.56ZM685.06 54.86V44.332C685.06 43.3507 685.182 42.604 685.428 42.092C685.684 41.58 686.26 41.2813 687.156 41.196L685.06 38.748V35.116C685.06 33.6973 685.348 32.5293 685.924 31.612C686.5 30.684 687.305 29.996 688.34 29.548C689.374 29.1 690.58 28.876 691.956 28.876C692.404 28.876 692.889 28.8973 693.412 28.94C693.945 28.972 694.436 29.0093 694.884 29.052C695.342 29.0947 695.678 29.1373 695.892 29.18V32.556C695.668 32.4707 695.326 32.3907 694.868 32.316C694.409 32.2413 693.929 32.1827 693.428 32.14C692.926 32.0973 692.489 32.076 692.116 32.076C691.444 32.076 690.83 32.1667 690.276 32.348C689.732 32.5293 689.294 32.8333 688.964 33.26C688.633 33.6867 688.468 34.2787 688.468 35.036V54.86H685.06ZM681.828 55.5V52.652H693.796V55.5H681.828ZM681.204 41.196V38.028H693.956V41.196H681.204ZM706.311 55.692C704.711 55.692 703.431 55.2493 702.471 54.364C701.511 53.4787 701.031 52.2787 701.031 50.764C701.031 49.4733 701.453 48.4067 702.295 47.564C703.138 46.7213 704.391 46.1507 706.055 45.852C706.845 45.7133 707.623 45.596 708.391 45.5C709.17 45.404 709.858 45.3293 710.455 45.276C711.063 45.212 711.501 45.1693 711.767 45.148V43.804C711.767 42.652 711.495 41.8413 710.951 41.372C710.418 40.892 709.597 40.652 708.487 40.652C707.378 40.652 706.503 40.876 705.863 41.324C705.234 41.7613 704.93 42.6467 704.951 43.98H701.703C701.586 42.6893 701.799 41.5747 702.343 40.636C702.887 39.6973 703.687 38.9773 704.743 38.476C705.81 37.964 707.063 37.708 708.503 37.708C710.658 37.708 712.306 38.252 713.447 39.34C714.599 40.4173 715.175 42.0387 715.175 44.204V55.5H711.767V51.612C711.565 52.3907 711.191 53.0893 710.647 53.708C710.114 54.316 709.469 54.8013 708.711 55.164C707.965 55.516 707.165 55.692 706.311 55.692ZM707.527 52.908C708.103 52.908 708.701 52.796 709.319 52.572C709.938 52.3373 710.477 52.0387 710.935 51.676C711.405 51.3027 711.682 50.908 711.767 50.492V47.228C711.618 47.2387 711.341 47.276 710.935 47.34C710.53 47.3933 710.098 47.4573 709.639 47.532C709.181 47.596 708.775 47.6653 708.423 47.74C707.079 48.0067 706.141 48.348 705.607 48.764C705.085 49.18 704.823 49.7613 704.823 50.508C704.823 51.244 705.053 51.8307 705.511 52.268C705.981 52.6947 706.653 52.908 707.527 52.908ZM721.355 55.5V52.684H733.819V55.5H721.355ZM721.275 41.292V37.996H726.523V41.292H721.275ZM724.587 55.18V42.828C724.587 42.2947 724.693 41.9213 724.907 41.708C725.12 41.4947 725.483 41.356 725.995 41.292L724.587 39.948V37.996H727.627L727.915 42.7C728.16 41.676 728.565 40.7907 729.131 40.044C729.707 39.2867 730.384 38.7053 731.163 38.3C731.952 37.884 732.768 37.676 733.611 37.676C735.029 37.676 736.117 38.2147 736.875 39.292C737.632 40.3587 737.973 42.0067 737.899 44.236H734.411C734.389 43.0733 734.208 42.2467 733.867 41.756C733.525 41.2547 732.885 41.004 731.947 41.004C731.221 41.004 730.485 41.2653 729.739 41.788C729.003 42.3107 728.48 42.908 728.171 43.58V51.356C728.171 51.74 728.085 52.0387 727.915 52.252C727.755 52.4547 727.515 52.5987 727.195 52.684L728.171 53.372V55.18H724.587Z" fill="black"/>
<rect x="751" y="29" width="198" height="30" rx="5" fill="#D9D9D9" fill-opacity="0.88"/>
<mask id="path-7-inside-1_756_215" fill="white">
<path d="M1079 82H1109V716C1109 727.046 1100.05 736 1089 736H1079V82Z"/>
</mask>
<path d="M1079 82H1109V716C1109 727.046 1100.05 736 1089 736H1079V82Z" fill="#FAFAFA"/>
<path d="M1079 82H1109H1079ZM1110 716C1110 727.598 1100.6 737 1089 737H1078L1080 735H1089C1099.49 735 1108 726.493 1108 716H1110ZM1078 737V82H1080V735L1078 737ZM1110 82V716C1110 727.598 1100.6 737 1089 737V735C1099.49 735 1108 726.493 1108 716V82H1110Z" fill="black" mask="url(#path-7-inside-1_756_215)"/>
<defs>
<filter id="filter0_d_756_215" x="0" y="0" width="1113" height="744" filterUnits="userSpaceOnUse" color-interpolation-filters="sRGB">
<feFlood flood-opacity="0" result="BackgroundImageFix"/>
<feColorMatrix in="SourceAlpha" type="matrix" values="0 0 0 0 0 0 0 0 0 0 0 0 0 0 0 0 0 0 127 0" result="hardAlpha"/>
<feOffset dy="4"/>
<feGaussianBlur stdDeviation="2"/>
<feComposite in2="hardAlpha" operator="out"/>
<feColorMatrix type="matrix" values="0 0 0 0 0 0 0 0 0 0 0 0 0 0 0 0 0 0 0.25 0"/>
<feBlend mode="normal" in2="BackgroundImageFix" result="effect1_dropShadow_756_215"/>
<feBlend mode="normal" in="SourceGraphic" in2="effect1_dropShadow_756_215" result="shape"/>
</filter>
</defs>
</svg>
