<svg width="861" height="754" viewBox="0 0 861 754" fill="none" xmlns="http://www.w3.org/2000/svg">
<g filter="url(#filter0_d_56_45)">
<rect x="4.00366" width="853" height="746" rx="20" fill="#FAFAFA"/>
<rect x="4.50366" y="0.5" width="852" height="745" rx="19.5" stroke="black"/>
</g>
<line x1="4" y1="59.75" x2="857.095" y2="59.75" stroke="black"/>
<rect x="64.0037" y="17" width="265" height="30" rx="5" fill="#D9D9D9" fill-opacity="0.88"/>
<path d="M358.984 43L353.989 34.39H350.524L349.534 34.165L349.969 31.855V31.375H354.019C354.919 31.375 355.634 31.215 356.164 30.895C356.694 30.575 357.074 30.135 357.304 29.575C357.544 29.015 357.664 28.375 357.664 27.655C357.664 26.765 357.519 26.065 357.229 25.555C356.939 25.035 356.504 24.66 355.924 24.43C355.354 24.2 354.634 24.085 353.764 24.085L350.794 24.07L350.764 23.38L349.519 21.19C349.979 21.19 350.444 21.19 350.914 21.19C351.394 21.19 351.854 21.19 352.294 21.19C352.744 21.19 353.154 21.19 353.524 21.19C356.094 21.19 357.999 21.685 359.239 22.675C360.489 23.655 361.114 25.22 361.114 27.37C361.114 28.07 361.024 28.775 360.844 29.485C360.674 30.195 360.384 30.86 359.974 31.48C359.574 32.1 359.034 32.63 358.354 33.07C357.684 33.51 356.849 33.815 355.849 33.985L355.534 33.535C355.984 33.535 356.349 33.57 356.629 33.64C356.909 33.7 357.159 33.84 357.379 34.06C357.609 34.28 357.859 34.63 358.129 35.11L362.674 43H358.984ZM347.584 43V21.19H350.884V43H347.584ZM374.377 43.225C372.947 43.225 371.667 42.905 370.537 42.265C369.417 41.615 368.532 40.66 367.882 39.4C367.232 38.14 366.907 36.595 366.907 34.765C366.907 32.965 367.217 31.435 367.837 30.175C368.457 28.915 369.297 27.955 370.357 27.295C371.427 26.635 372.627 26.305 373.957 26.305C375.987 26.305 377.632 26.96 378.892 28.27C380.152 29.58 380.782 31.46 380.782 33.91C380.782 34.25 380.772 34.52 380.752 34.72C380.732 34.91 380.717 35.15 380.707 35.44H370.177C370.197 36.63 370.412 37.59 370.822 38.32C371.242 39.04 371.772 39.565 372.412 39.895C373.062 40.215 373.737 40.375 374.437 40.375C375.207 40.375 375.827 40.24 376.297 39.97C376.767 39.7 377.127 39.16 377.377 38.35H380.437C380.327 39.39 380.002 40.275 379.462 41.005C378.932 41.735 378.232 42.29 377.362 42.67C376.492 43.04 375.497 43.225 374.377 43.225ZM370.192 34.195C370.272 33.755 370.457 33.455 370.747 33.295C371.037 33.135 371.437 33.055 371.947 33.055H377.377C377.347 31.785 377.072 30.82 376.552 30.16C376.032 29.49 375.207 29.155 374.077 29.155C372.807 29.155 371.842 29.61 371.182 30.52C370.522 31.43 370.192 32.655 370.192 34.195ZM393.55 43.255C392.72 43.255 391.915 43.18 391.135 43.03C390.365 42.88 389.66 42.62 389.02 42.25C388.38 41.88 387.85 41.37 387.43 40.72C387.01 40.06 386.74 39.225 386.62 38.215H390.115C390.205 39.065 390.59 39.665 391.27 40.015C391.95 40.355 392.72 40.525 393.58 40.525C394.6 40.525 395.405 40.385 395.995 40.105C396.585 39.825 396.88 39.32 396.88 38.59C396.88 38.16 396.745 37.795 396.475 37.495C396.205 37.185 395.79 36.92 395.23 36.7C394.67 36.47 393.95 36.26 393.07 36.07C392.34 35.91 391.625 35.73 390.925 35.53C390.235 35.32 389.61 35.04 389.05 34.69C388.5 34.33 388.06 33.855 387.73 33.265C387.4 32.675 387.235 31.91 387.235 30.97C387.235 30.02 387.485 29.2 387.985 28.51C388.485 27.82 389.205 27.285 390.145 26.905C391.085 26.525 392.21 26.335 393.52 26.335C394.54 26.335 395.505 26.49 396.415 26.8C397.325 27.11 398.08 27.615 398.68 28.315C399.28 29.005 399.605 29.93 399.655 31.09H396.34C396.29 30.61 396.145 30.22 395.905 29.92C395.665 29.62 395.34 29.4 394.93 29.26C394.53 29.12 394.055 29.05 393.505 29.05C392.835 29.05 392.27 29.12 391.81 29.26C391.35 29.4 391 29.61 390.76 29.89C390.52 30.16 390.4 30.505 390.4 30.925C390.4 31.335 390.55 31.69 390.85 31.99C391.15 32.28 391.6 32.54 392.2 32.77C392.8 32.99 393.545 33.205 394.435 33.415C394.985 33.545 395.59 33.71 396.25 33.91C396.91 34.1 397.54 34.37 398.14 34.72C398.74 35.06 399.23 35.515 399.61 36.085C400 36.655 400.195 37.375 400.195 38.245C400.195 39.785 399.67 41.005 398.62 41.905C397.57 42.805 395.88 43.255 393.55 43.255ZM411.164 43.33C409.804 43.33 408.684 42.835 407.804 41.845C406.924 40.845 406.484 39.435 406.484 37.615V26.62H409.829V37.06C409.829 38.21 410.034 39.025 410.444 39.505C410.864 39.975 411.549 40.21 412.499 40.21C413.269 40.21 413.964 39.99 414.584 39.55C415.214 39.11 415.654 38.615 415.904 38.065V26.62H419.279V43H416.414L416.024 36.82L416.294 38.065C416.174 38.965 415.939 39.815 415.589 40.615C415.239 41.415 414.709 42.07 413.999 42.58C413.299 43.08 412.354 43.33 411.164 43.33ZM424.292 43V26.62H426.902L427.187 31.24L426.977 31.705C427.117 30.015 427.512 28.69 428.162 27.73C428.812 26.77 429.742 26.29 430.952 26.29C431.602 26.29 432.147 26.445 432.587 26.755C433.027 27.065 433.352 27.58 433.562 28.3C433.782 29.01 433.867 29.97 433.817 31.18V43H430.937V31.285C430.937 30.545 430.832 30.05 430.622 29.8C430.412 29.54 430.102 29.41 429.692 29.41C429.332 29.41 428.917 29.535 428.447 29.785C427.987 30.035 427.562 30.6 427.172 31.48V43H424.292ZM437.537 43V31.285C437.537 30.635 437.422 30.16 437.192 29.86C436.962 29.56 436.597 29.41 436.097 29.41C435.547 29.41 435.082 29.585 434.702 29.935C434.322 30.275 434.027 30.785 433.817 31.465L433.337 32.68L433.667 31.555C433.777 29.915 434.177 28.63 434.867 27.7C435.557 26.76 436.477 26.29 437.627 26.29C438.537 26.29 439.227 26.63 439.697 27.31C440.177 27.99 440.417 29.225 440.417 31.015V43H437.537ZM452.33 43.225C450.9 43.225 449.62 42.905 448.49 42.265C447.37 41.615 446.485 40.66 445.835 39.4C445.185 38.14 444.86 36.595 444.86 34.765C444.86 32.965 445.17 31.435 445.79 30.175C446.41 28.915 447.25 27.955 448.31 27.295C449.38 26.635 450.58 26.305 451.91 26.305C453.94 26.305 455.585 26.96 456.845 28.27C458.105 29.58 458.735 31.46 458.735 33.91C458.735 34.25 458.725 34.52 458.705 34.72C458.685 34.91 458.67 35.15 458.66 35.44H448.13C448.15 36.63 448.365 37.59 448.775 38.32C449.195 39.04 449.725 39.565 450.365 39.895C451.015 40.215 451.69 40.375 452.39 40.375C453.16 40.375 453.78 40.24 454.25 39.97C454.72 39.7 455.08 39.16 455.33 38.35H458.39C458.28 39.39 457.955 40.275 457.415 41.005C456.885 41.735 456.185 42.29 455.315 42.67C454.445 43.04 453.45 43.225 452.33 43.225ZM448.145 34.195C448.225 33.755 448.41 33.455 448.7 33.295C448.99 33.135 449.39 33.055 449.9 33.055H455.33C455.3 31.785 455.025 30.82 454.505 30.16C453.985 29.49 453.16 29.155 452.03 29.155C450.76 29.155 449.795 29.61 449.135 30.52C448.475 31.43 448.145 32.655 448.145 34.195Z" fill="black"/>
<rect x="478.004" y="17" width="220" height="30" rx="5" fill="#D9D9D9" fill-opacity="0.88"/>
<defs>
<filter id="filter0_d_56_45" x="0.00366211" y="0" width="861" height="754" filterUnits="userSpaceOnUse" color-interpolation-filters="sRGB">
<feFlood flood-opacity="0" result="BackgroundImageFix"/>
<feColorMatrix in="SourceAlpha" type="matrix" values="0 0 0 0 0 0 0 0 0 0 0 0 0 0 0 0 0 0 127 0" result="hardAlpha"/>
<feOffset dy="4"/>
<feGaussianBlur stdDeviation="2"/>
<feComposite in2="hardAlpha" operator="out"/>
<feColorMatrix type="matrix" values="0 0 0 0 0 0 0 0 0 0 0 0 0 0 0 0 0 0 0.25 0"/>
<feBlend mode="normal" in2="BackgroundImageFix" result="effect1_dropShadow_56_45"/>
<feBlend mode="normal" in="SourceGraphic" in2="effect1_dropShadow_56_45" result="shape"/>
</filter>
</defs>
</svg>
