<svg width="40" height="40" viewBox="0 0 40 40" fill="none" xmlns="http://www.w3.org/2000/svg">
<path d="M22.5 3.75H28.75V13.75H22.5V3.75Z" fill="black"/>
<path d="M38.3081 5.80813L34.1919 1.69188C33.9487 1.44875 33.4688 1.25 33.125 1.25H5.625V3.75H3.125V1.25H1.875C1.53125 1.25 1.25 1.53125 1.25 1.875V38.125C1.25 38.4688 1.53125 38.75 1.875 38.75H38.125C38.4688 38.75 38.75 38.4688 38.75 38.125V6.875C38.75 6.53125 38.5513 6.05125 38.3081 5.80813ZM32.5 36.25H7.5V21.25C7.5 20.5625 8.0625 20 8.75 20H31.25C31.9375 20 32.5 20.5625 32.5 21.25V36.25ZM32.5 13.75C32.5 14.4375 31.9381 15 31.25 15H12.5C11.8125 15 11.25 14.4375 11.25 13.75V1.875H32.5V13.75ZM36.875 36.25C36.875 36.5938 36.5938 36.875 36.25 36.875H35C34.6562 36.875 34.375 36.5938 34.375 36.25V35C34.375 34.6562 34.6562 34.375 35 34.375H36.25C36.5938 34.375 36.875 34.6562 36.875 35V36.25Z" fill="black"/>
<path d="M10.625 22.5H29.375V23.75H10.625V22.5Z" fill="black"/>
<path d="M10.625 26.25H29.375V27.5H10.625V26.25Z" fill="black"/>
<path d="M10.625 30H29.375V31.25H10.625V30Z" fill="black"/>
</svg>
