<svg width="23" height="22" viewBox="0 0 23 22" fill="none" xmlns="http://www.w3.org/2000/svg">
<path d="M10.7392 1.57771C10.9786 0.840661 12.0214 0.840657 12.2608 1.57771L13.6248 5.77549C13.9996 6.92915 15.0747 7.71024 16.2877 7.71024H20.7015C21.4765 7.71024 21.7987 8.70193 21.1718 9.15745L17.6009 11.7518C16.6196 12.4648 16.2089 13.7286 16.5838 14.8823L17.9477 19.0801C18.1872 19.8171 17.3436 20.43 16.7166 19.9745L13.1458 17.3801C12.1644 16.6671 10.8356 16.6671 9.8542 17.3801L6.28336 19.9745C5.65639 20.43 4.8128 19.8171 5.05229 19.0801L6.41623 14.8823C6.79107 13.7286 6.38043 12.4648 5.39907 11.7518L1.82822 9.15745C1.20126 8.70193 1.52347 7.71024 2.29845 7.71024H6.71226C7.92529 7.71024 9.00037 6.92915 9.37521 5.77548L10.7392 1.57771Z" stroke="#B0B0B0" stroke-width="2"/>
</svg>
